<?xml version="1.0" standalone="no"?>
<!DOCTYPE svg PUBLIC "-//W3C//DTD SVG 1.1//EN" "http://www.w3.org/Graphics/SVG/1.1/DTD/svg11.dtd" >
<svg xmlns="http://www.w3.org/2000/svg">
<metadata>Generated by IcoMoon</metadata>
<defs>
<font id="streamline-font-icons" horiz-adv-x="1024">
<font-face units-per-em="1024" ascent="960" descent="-64" />
<missing-glyph horiz-adv-x="1024" />
<glyph unicode="&#x20;" horiz-adv-x="512" d="" />
<glyph unicode="&#xe900;" glyph-name="alarm" d="M1002.667 149.333c-58.795 0-106.667 47.872-106.667 106.667v234.667c0 155.349-95.573 296.576-239.061 355.2-16 66.859-75.093 114.133-144.939 114.133-68.779 0-129.024-48.256-145.024-114.133-143.445-58.581-238.976-199.808-238.976-355.2v-234.667c0-58.795-47.872-106.667-106.667-106.667-11.776 0-21.333-9.557-21.333-21.333s9.557-21.333 21.333-21.333h343.509c10.453-72.149 72.107-128 147.157-128s136.704 55.851 147.157 128h343.509c11.776 0 21.333 9.557 21.333 21.333s-9.557 21.333-21.333 21.333zM512 21.333c-51.499 0-94.592 36.693-104.491 85.333h208.981c-9.899-48.64-52.992-85.333-104.491-85.333zM125.739 149.333c27.733 27.093 44.928 64.896 44.928 106.667v234.667c0 141.653 89.344 270.080 222.336 319.573 7.253 2.688 12.459 9.131 13.653 16.768 7.893 51.456 53.205 90.325 105.344 90.325 52.864 0 97.109-38.016 105.173-90.325 1.152-7.637 6.4-14.037 13.653-16.768 133.077-49.536 222.507-177.963 222.507-319.573v-234.667c0-41.771 17.195-79.573 44.928-106.667h-772.523z" />
<glyph unicode="&#xe901;" glyph-name="cog" d="M1002.667 533.333h-121.813c-8.491 33.707-19.371 71.125-33.152 99.499l86.699 86.699c4.011 4.011 6.229 9.429 6.229 15.104s-2.261 11.093-6.229 15.104l-120.747 120.576c-8.32 8.363-21.845 8.363-30.165 0l-86.741-86.656c-28.331 13.781-65.749 24.661-99.413 33.152v121.856c0 11.776-9.557 21.333-21.333 21.333h-128c-11.776 0-21.333-9.557-21.333-21.333v-121.856c-33.707-8.491-71.125-19.371-99.456-33.152l-86.741 86.656c-8.32 8.363-21.845 8.363-30.165 0l-120.704-120.619c-4.011-4.011-6.272-9.429-6.272-15.104s2.261-11.051 6.272-15.061l86.741-86.784c-13.739-28.245-24.661-65.707-33.237-99.413h-121.771c-11.776 0-21.333-9.557-21.333-21.333v-128c0-11.776 9.557-21.333 21.333-21.333h121.771c8.576-33.749 19.456-71.168 33.195-99.499l-86.699-86.741c-4.011-3.968-6.229-9.387-6.229-15.061s2.261-11.093 6.229-15.104l120.704-120.661c8.021-8.021 22.187-7.979 30.165 0l86.699 86.784c28.331-13.824 65.749-24.704 99.499-33.28v-121.771c0-11.776 9.557-21.333 21.333-21.333h128c11.776 0 21.333 9.557 21.333 21.333v121.771c33.749 8.576 71.168 19.456 99.413 33.195l86.784-86.699c8.32-8.32 21.845-8.32 30.165 0l120.661 120.661c8.32 8.32 8.32 21.845 0 30.165l-86.699 86.741c13.739 28.288 24.661 65.749 33.195 99.499h121.813c11.776 0 21.333 9.557 21.333 21.333v128c0 11.776-9.557 21.333-21.333 21.333zM981.333 405.333h-117.163c-9.856 0-18.432-6.784-20.736-16.299-5.76-23.808-21.077-87.083-40.32-118.528-5.12-8.448-3.84-19.243 3.115-26.197l82.859-82.901-90.496-90.496-82.944 82.859c-7.040 6.997-17.835 8.277-26.197 3.115-31.445-19.243-94.677-34.56-118.485-40.32-9.557-2.347-16.299-10.88-16.299-20.736v-117.163h-85.333v117.163c0 9.856-6.741 18.389-16.299 20.736-23.808 5.76-87.040 21.077-118.528 40.32-8.448 5.205-19.285 3.883-26.24-3.072l-82.859-82.944-90.581 90.496 82.901 82.901c6.997 6.955 8.235 17.792 3.115 26.197-19.243 31.445-34.56 94.72-40.32 118.528-2.261 9.557-10.837 16.341-20.693 16.341h-117.163v85.333h117.163c9.856 0 18.432 6.741 20.736 16.299 5.76 23.808 21.077 87.040 40.32 118.485 5.12 8.448 3.84 19.243-3.115 26.24l-82.944 82.901 90.539 90.539 82.901-82.859c6.997-6.997 17.792-8.235 26.197-3.115 31.659 19.328 94.763 34.517 118.528 40.235 9.6 2.261 16.341 10.837 16.341 20.693v117.248h85.333v-117.248c0-9.856 6.741-18.432 16.341-20.736 37.291-8.96 90.069-22.912 118.485-40.235 8.32-5.12 19.157-3.84 26.197 3.115l82.901 82.859 90.539-90.539-82.859-82.859c-6.955-6.955-8.235-17.792-3.115-26.155 19.328-31.701 34.56-94.805 40.277-118.571 2.261-9.557 10.837-16.299 20.693-16.299h117.205v-85.333zM512 661.333c-117.632 0-213.333-95.701-213.333-213.333s95.701-213.333 213.333-213.333 213.333 95.701 213.333 213.333-95.701 213.333-213.333 213.333zM512 277.333c-94.123 0-170.667 76.544-170.667 170.667s76.544 170.667 170.667 170.667 170.667-76.544 170.667-170.667-76.544-170.667-170.667-170.667z" />
<glyph unicode="&#xe902;" glyph-name="phone-5" d="M938.624 205.184l-104.661 104.661c-20.651 20.651-48.085 32.043-77.312 32.043s-56.661-11.392-77.355-32.043l-28.032-28.032c-109.653 90.709-214.955 196.011-305.451 305.493l28.032 28.032c42.624 42.624 42.624 112 0 154.624l-104.661 104.661c-20.651 20.651-48.128 32.043-77.312 32.043-29.227 0-56.704-11.392-77.355-32.043l-57.429-57.429c-53.035-52.992-61.44-137.003-20.053-199.68 167.851-253.739 390.699-476.587 644.48-644.437 26.069-17.237 56.363-26.368 87.595-26.368 42.368 0 82.176 16.512 112.043 46.421l57.429 57.429c20.651 20.608 32.043 48.085 32.043 77.312s-11.349 56.661-32 77.312z" />
<glyph unicode="&#xe903;" glyph-name="arrow-right" d="M1022.379 418.517c2.133 5.248 2.133 11.093 0 16.299-1.067 2.645-2.688 4.992-4.651 6.955l-213.291 213.333c-8.32 8.32-21.845 8.32-30.165 0s-8.32-21.845 0-30.165l176.896-176.939h-929.835c-11.776 0-21.333-9.557-21.333-21.333s9.557-21.333 21.333-21.333h929.835l-176.896-176.896c-8.32-8.32-8.32-21.845 0-30.165 4.139-4.181 9.6-6.272 15.061-6.272s10.923 2.091 15.104 6.229l213.291 213.333c1.963 1.92 3.584 4.352 4.651 6.955z" />
<glyph unicode="&#xe904;" glyph-name="person-2" d="M979.072 139.989c-31.36 62.677-138.368 102.059-286.464 156.501-17.067 6.272-34.645 12.757-52.608 19.456v102.784c18.731 15.872 58.795 57.387 63.531 125.141 9.685 8.235 17.28 22.315 21.717 41.045 7.125 30.080 3.541 65.749-17.749 86.955 1.152 2.901 2.517 6.229 3.968 9.899 16.341 41.216 46.805 117.973 34.773 178.219-14.763 73.813-119.595 100.011-204.928 100.011-66.219 0-146.603-16.683-171.947-62.336-25.472-2.859-45.141-13.397-58.581-31.488-37.035-49.963-10.155-138.752 4.309-186.411 0.768-2.603 1.493-5.035 2.176-7.125-21.973-21.077-25.728-57.259-18.517-87.723 4.437-18.731 12.032-32.853 21.717-41.045 4.736-67.755 44.8-109.269 63.531-125.141v-102.784c-17.963-6.699-35.541-13.184-52.693-19.456-148.096-54.443-255.104-93.824-286.379-156.459-44.416-88.875-44.928-178.901-44.928-182.699 0-11.776 9.557-21.333 21.333-21.333h981.333c11.776 0 21.333 9.557 21.333 21.333 0 3.797-0.512 93.824-44.928 182.656zM43.947-21.333c2.773 29.952 11.52 86.997 39.125 142.208 23.765 47.531 134.613 88.32 262.955 135.467 21.547 7.979 43.904 16.171 66.773 24.747 8.363 3.157 13.867 11.136 13.867 20.011v128c0 7.125-3.541 13.781-9.515 17.749-0.512 0.341-54.485 37.205-54.485 110.251 0 9.856-6.656 18.133-15.744 20.608-4.437 6.229-11.008 26.24-8.235 45.397 1.579 11.093 5.675 18.304 12.203 21.589 7.211 3.627 11.776 10.965 11.776 19.072 0 5.76-1.749 11.776-6.741 28.373-10.539 34.688-35.157 115.883-10.88 148.651 7.509 10.069 20.267 14.976 38.955 14.976 9.771 0 18.304 6.656 20.693 16.171 5.589 22.315 58.197 45.397 136.619 45.397 74.539 0 154.496-22.571 163.115-65.749 9.557-47.872-17.877-116.949-32.597-154.112-7.424-18.688-10.496-26.368-10.496-33.707 0-8.107 4.565-15.445 11.776-19.072 6.485-3.285 10.624-10.496 12.203-21.547 2.773-19.2-3.797-39.211-8.235-45.397-9.088-2.517-15.744-10.795-15.744-20.651 0-72.235-52.352-108.8-54.485-110.251-5.973-3.968-9.515-10.624-9.515-17.749v-128c0-8.875 5.504-16.853 13.824-19.968 22.869-8.576 45.184-16.768 66.688-24.704 128.384-47.189 239.232-87.979 263.040-135.552 27.648-55.211 36.395-112.256 39.168-142.208h-936.107z" />
<glyph unicode="&#xe905;" glyph-name="phone-call-outgoing" d="M732.587 270.72c-40.277 40.32-110.592 40.32-150.827 0l-16.427-16.427c-88.32 73.899-173.141 158.763-246.997 246.997l16.469 16.469c41.515 41.6 41.515 109.269 0 150.827l-90.581 90.496c-40.32 40.32-110.592 40.32-150.912 0l-49.621-49.621c-49.877-49.877-57.813-128.896-18.816-187.904 146.005-220.8 339.883-414.677 560.683-560.725 24.491-16.213 52.992-24.747 82.389-24.747 39.893 0 77.355 15.488 105.472 43.605l49.664 49.664c20.139 20.139 31.232 46.933 31.232 75.435 0 28.459-11.093 55.253-31.232 75.435l-90.496 90.496zM792.917 59.563l-49.664-49.664c-34.859-34.859-92.928-40.747-134.144-13.44-216.064 142.933-405.76 332.629-548.651 548.608-27.861 42.155-22.229 98.603 13.397 134.229l49.621 49.621c12.117 12.075 28.16 18.731 45.312 18.731 17.109 0 33.152-6.656 45.269-18.731l90.539-90.496c24.917-24.96 24.917-65.536 0-90.496l-30.165-30.165c-7.765-7.765-8.363-20.139-1.408-28.587 82.475-100.693 179.371-197.632 280.149-280.192 8.491-6.997 20.821-6.357 28.587 1.408l30.208 30.165c24.149 24.149 66.347 24.149 90.496 0l90.496-90.496c12.075-12.075 18.731-28.16 18.731-45.269-0.043-17.109-6.656-33.152-18.773-45.227zM1023.744 939.819c-0.128 2.389-0.469 4.693-1.365 6.912-2.176 5.291-6.357 9.472-11.648 11.605-0.64 0.256-1.323 0.213-2.005 0.427-1.963 0.597-3.925 1.237-6.059 1.237h-277.333c-11.776 0-21.333-9.557-21.333-21.333s9.557-21.333 21.333-21.333h225.877l-390.272-390.272c-8.32-8.32-8.32-21.845 0-30.165 4.181-4.181 9.643-6.229 15.104-6.229s10.923 2.091 15.104 6.229l390.187 390.229v-225.792c0-11.776 9.557-21.333 21.333-21.333s21.333 9.557 21.333 21.333v277.333c0 0.427-0.213 0.768-0.256 1.152z" />
<glyph unicode="&#xe906;" glyph-name="phone-call-reject" d="M732.587 270.72c-40.277 40.32-110.592 40.32-150.869 0l-16.427-16.427c-88.32 73.899-173.141 158.72-246.997 246.997l16.469 16.427c41.472 41.6 41.472 109.269 0 150.869l-90.581 90.496c-40.235 40.192-110.464 40.277-150.869 0l-49.621-49.664c-49.92-49.877-57.856-128.896-18.859-187.861 146.005-220.8 339.883-414.72 560.683-560.725 24.533-16.213 53.035-24.789 82.389-24.789 39.893 0 77.355 15.488 105.515 43.648l49.664 49.621c41.6 41.6 41.6 109.269 0 150.827l-90.496 90.581zM792.917 59.52l-49.664-49.621c-34.859-34.901-92.843-40.789-134.187-13.44-216.021 142.891-405.76 332.587-548.651 548.608-27.819 42.155-22.187 98.56 13.44 134.187l49.621 49.664c12.075 12.075 28.16 18.688 45.269 18.688s33.152-6.613 45.227-18.688l90.581-90.496c24.917-24.96 24.917-65.579 0.043-90.496l-30.208-30.123c-7.765-7.765-8.405-20.181-1.451-28.629 82.517-100.736 179.371-197.632 280.149-280.192 8.448-6.997 20.821-6.272 28.587 1.408l30.165 30.165c24.149 24.149 66.389 24.149 90.539 0l90.496-90.539c25.003-24.96 25.003-65.579 0.043-90.496zM942.763 878.805c-52.395 52.352-122.027 81.195-196.096 81.195s-143.701-28.843-196.096-81.195c-52.395-52.395-81.237-122.027-81.237-196.096s28.843-143.744 81.237-196.139c52.352-52.395 121.984-81.195 196.053-81.195s143.744 28.843 196.096 81.195c52.437 52.395 81.28 122.069 81.28 196.139s-28.843 143.701-81.237 196.096zM912.597 516.736c-44.331-44.331-103.253-68.693-165.931-68.693s-121.6 24.363-165.888 68.693c-44.373 44.331-68.779 103.296-68.779 165.973s24.405 121.6 68.736 165.931c44.331 44.331 103.253 68.693 165.931 68.693s121.6-24.363 165.931-68.693c44.331-44.331 68.736-103.253 68.736-165.931s-24.405-121.643-68.736-165.973zM844.032 780.032c-8.32 8.32-21.845 8.32-30.165 0l-67.2-67.2-67.2 67.2c-8.32 8.32-21.845 8.32-30.165 0s-8.32-21.845 0-30.165l67.2-67.2-67.2-67.157c-8.32-8.32-8.32-21.845 0-30.165 4.181-4.181 9.643-6.229 15.104-6.229s10.923 2.091 15.104 6.229l67.157 67.157 67.2-67.157c4.181-4.181 9.643-6.229 15.104-6.229s10.923 2.091 15.104 6.229c8.32 8.32 8.32 21.845 0 30.165l-67.2 67.157 67.2 67.2c8.32 8.363 8.32 21.845-0.043 30.165z" />
<glyph unicode="&#xe907;" glyph-name="bring-to-front" d="M1002.667 704h-234.667v234.667c0 11.776-9.557 21.333-21.333 21.333h-725.333c-11.776 0-21.333-9.557-21.333-21.333v-725.333c0-11.776 9.557-21.333 21.333-21.333h234.667v-234.667c0-11.776 9.557-21.333 21.333-21.333h725.333c11.776 0 21.333 9.557 21.333 21.333v725.333c0 11.776-9.557 21.333-21.333 21.333zM42.667 234.667v682.667h682.667v-213.333h-448c-11.776 0-21.333-9.557-21.333-21.333v-448h-213.333zM981.333-21.333h-682.667v682.667h682.667v-682.667z" />
<glyph unicode="&#xe908;" glyph-name="clock-2" d="M512 960c-282.325 0-512-229.675-512-512s229.675-512 512-512 512 229.675 512 512-229.675 512-512 512zM512-21.333c-258.773 0-469.333 210.517-469.333 469.333 0 258.773 210.56 469.333 469.333 469.333s469.333-210.56 469.333-469.333c0-258.816-210.56-469.333-469.333-469.333zM512 457.387v225.28c0 11.776-9.557 21.333-21.333 21.333s-21.333-9.557-21.333-21.333v-234.667c0-5.973 2.517-11.691 6.912-15.744l256-234.667c4.096-3.755 9.259-5.589 14.421-5.589 5.76 0 11.52 2.347 15.744 6.912 7.979 8.704 7.381 22.187-1.323 30.165l-249.088 228.309z" />
<glyph unicode="&#xe909;" glyph-name="bubble-chat-exclamation-2" d="M512 922.624c-282.325 0-512-189.184-512-421.675 0-109.824 50.219-212.736 141.867-291.499l-102.827-205.227c-4.053-8.107-2.56-17.92 3.797-24.448 4.096-4.224 9.643-6.443 15.275-6.443 3.029 0 6.144 0.64 9.003 2.005l274.645 127.829c54.528-15.829 111.787-23.851 170.24-23.851 282.325 0 512 189.141 512 421.632s-229.675 421.675-512 421.675zM512 121.984c-57.088 0-112.853 8.149-165.675 24.32-5.035 1.536-10.496 1.195-15.232-1.067l-226.475-105.429 83.029 165.675c4.48 9.003 2.091 19.968-5.76 26.24-89.771 71.808-139.221 167.381-139.221 269.227 0 208.981 210.56 379.008 469.333 379.008s469.333-170.027 469.333-379.008c0-208.939-210.56-378.965-469.333-378.965zM490.667 421.333c11.776 0 21.333 9.557 21.333 21.333v256c0 11.776-9.557 21.333-21.333 21.333s-21.333-9.557-21.333-21.333v-256c0-11.776 9.557-21.333 21.333-21.333zM533.333 346.624c0-23.564-19.103-42.667-42.667-42.667s-42.667 19.103-42.667 42.667c0 23.564 19.103 42.667 42.667 42.667s42.667-19.103 42.667-42.667z" />
<glyph unicode="&#xe90a;" glyph-name="phone-call-2" d="M732.587 270.763c-40.277 40.32-110.549 40.32-150.827 0l-16.427-16.427c-88.405 73.941-173.227 158.805-246.997 246.955l16.469 16.469c41.515 41.6 41.515 109.312 0 150.869l-90.581 90.496c-40.235 40.235-110.592 40.235-150.827 0l-49.707-49.664c-49.877-49.92-57.813-128.896-18.816-187.861 146.005-220.8 339.883-414.677 560.725-560.725 24.533-16.213 53.035-24.789 82.389-24.789 39.893 0 77.355 15.488 105.429 43.648l49.707 49.664c41.557 41.557 41.557 109.227 0 150.827l-90.539 90.539zM792.96 59.563l-49.749-49.664c-34.816-34.901-92.8-40.747-134.144-13.44-216.064 142.933-405.76 332.629-548.651 548.608-27.819 42.155-22.187 98.603 13.44 134.229l49.664 49.664c12.075 12.075 28.16 18.688 45.269 18.688s33.152-6.613 45.269-18.688l90.539-90.496c24.917-24.96 24.917-65.579 0-90.539l-30.165-30.165c-7.765-7.765-8.363-20.139-1.408-28.587 82.432-100.608 179.285-197.504 280.149-280.149 8.491-6.997 20.821-6.272 28.587 1.408l30.165 30.165c24.149 24.149 66.347 24.149 90.496 0l90.539-90.496c24.917-24.96 24.917-65.621 0-90.539zM512 960c-11.776 0-21.333-9.557-21.333-21.333s9.557-21.333 21.333-21.333c258.773 0 469.333-210.56 469.333-469.333 0-11.776 9.557-21.333 21.333-21.333s21.333 9.557 21.333 21.333c0 282.325-229.675 512-512 512zM512 746.667c164.693 0 298.667-134.016 298.667-298.667 0-11.776 9.557-21.333 21.333-21.333s21.333 9.557 21.333 21.333c0 188.203-153.131 341.333-341.333 341.333-11.776 0-21.333-9.557-21.333-21.333s9.557-21.333 21.333-21.333zM512 576c70.571 0 128-57.429 128-128 0-11.776 9.557-21.333 21.333-21.333s21.333 9.557 21.333 21.333c0 94.123-76.544 170.667-170.667 170.667-11.776 0-21.333-9.557-21.333-21.333s9.557-21.333 21.333-21.333z" />
<glyph unicode="&#xe90b;" glyph-name="arrow-left-12" d="M789.333-64c-9.728 0-19.541 3.328-27.563 10.069l-554.667 469.333c-9.6 8.149-15.104 20.053-15.104 32.597s5.504 24.448 15.104 32.597l554.667 469.333c18.005 15.147 44.928 13.013 60.117-5.035 15.232-17.963 12.971-44.885-4.992-60.117l-516.181-436.779 516.181-436.736c17.963-15.232 20.224-42.155 4.992-60.117-8.448-10.027-20.437-15.147-32.555-15.147z" />
<glyph unicode="&#xe90c;" glyph-name="arrow-right-12" d="M234.667-64c-12.117 0-24.149 5.12-32.597 15.104-15.232 17.963-12.971 44.885 4.992 60.117l516.224 436.779-516.181 436.736c-17.963 15.275-20.224 42.197-4.992 60.16 15.189 18.048 42.112 20.224 60.117 5.035l554.667-469.333c9.6-8.107 15.104-20.053 15.104-32.597s-5.504-24.448-15.104-32.597l-554.667-469.333c-8.021-6.741-17.792-10.069-27.563-10.069z" />
<glyph unicode="&#xe90d;" glyph-name="unchecked-circle" d="M510.434 956.281c-275.776 0-500.453-228.894-500.453-509.847s224.676-509.847 500.453-509.847c275.776 0 500.453 228.894 500.453 509.847s-224.676 509.847-500.453 509.847zM510.434 915.494c254.063 0 460.416-210.227 460.416-469.059s-206.353-469.059-460.416-469.059c-254.063 0-460.416 210.227-460.416 469.059s206.353 469.059 460.416 469.059zM510.434 915.494c-253.679 0-460.416-210.619-460.416-469.059 0-258.48 206.74-469.059 460.416-469.059s460.416 210.58 460.416 469.059c0 258.441-206.738 469.059-460.416 469.059zM510.434 874.706c231.961 0 420.38-191.957 420.38-428.272 0-236.358-188.417-428.272-420.38-428.272s-420.38 191.914-420.38 428.272c0 236.315 188.42 428.272 420.38 428.272z" />
<glyph unicode="&#xe90e;" glyph-name="check-circle-2" d="M512.043 959.957c-282.325 0-512-229.717-512-512s229.675-512 512-512c282.283 0 512 229.717 512 512s-229.675 512-512 512zM739.925 581.675l-320-298.667c-4.096-3.797-9.344-5.717-14.549-5.717-5.461 0-10.923 2.091-15.104 6.229l-106.667 106.667c-8.32 8.32-8.32 21.845 0 30.165 8.32 8.363 21.845 8.363 30.165 0l92.075-92.075 304.939 284.587c8.576 8.021 22.101 7.595 30.165-0.981 8.064-8.619 7.595-22.144-1.024-30.208z" />
<glyph unicode="&#xe90f;" glyph-name="phone-circle" d="M512 960c-282.325 0-512-229.675-512-512s229.675-512 512-512c186.88 0 255.104 70.016 279.424 128.725 19.925 48.043 13.952 96.64 2.56 124.032l14.208 14.208c16.811 16.853 26.709 38.699 27.904 61.525 1.237 23.723-6.955 45.611-23.083 61.696l-66.091 66.091c-31.445 31.445-89.259 29.099-123.179-4.864l-10.88-10.837c-62.037 51.328-121.088 110.336-172.288 172.288l10.837 10.837c35.328 35.285 37.504 90.581 4.907 123.264l-66.133 66.091c-31.403 31.445-89.259 29.056-123.179-4.949l-40.32-40.235c-41.643-41.643-50.859-105.301-21.888-151.296 104.192-165.205 246.613-307.627 411.819-411.776 17.579-11.136 38.272-16.981 59.819-16.981 29.909 0 59.392 11.819 82.987 31.915 3.84-20.309 4.523-51.541-11.136-82.731-30.933-61.739-112.683-94.336-236.288-94.336-258.773 0-469.333 210.56-469.333 469.333s210.56 469.333 469.333 469.333 469.333-210.56 469.333-469.333c0-95.317-28.373-187.051-82.091-265.259-6.656-9.728-4.224-22.997 5.504-29.653s23.040-4.181 29.653 5.504c58.624 85.333 89.6 185.429 89.6 289.408 0 282.325-229.675 512-512 512zM639.36 176.896c-159.872 100.779-297.685 238.592-398.507 398.464-18.432 29.269-11.691 70.656 16.043 98.347l40.32 40.235c9.856 9.899 22.955 15.573 35.883 15.573 10.496 0 20.096-3.797 26.965-10.667l66.091-66.048c16-16 13.781-44.203-4.907-62.933l-24.448-24.448c-7.68-7.723-8.363-19.925-1.579-28.416 59.776-74.667 130.944-145.792 205.781-205.781 8.448-6.741 20.736-6.187 28.416 1.579l24.533 24.448c17.877 17.877 47.488 20.181 62.891 4.864l66.091-66.091c7.424-7.467 11.221-17.835 10.624-29.312-0.64-12.331-6.187-24.235-15.488-33.621l-40.363-40.235c-26.88-26.965-69.76-33.92-98.347-15.957z" />
<glyph unicode="&#xe910;" glyph-name="calendar-2" d="M1002.667 874.667h-149.333v64c0 11.776-9.557 21.333-21.333 21.333h-128c-11.776 0-21.333-9.557-21.333-21.333v-64h-341.333v64c0 11.776-9.557 21.333-21.333 21.333h-128c-11.776 0-21.333-9.557-21.333-21.333v-64h-149.333c-11.776 0-21.333-9.557-21.333-21.333v-896c0-11.776 9.557-21.333 21.333-21.333h981.333c11.776 0 21.333 9.557 21.333 21.333v896c0 11.776-9.557 21.333-21.333 21.333zM725.333 917.333h85.333v-128h-85.333v128zM213.333 917.333h85.333v-128h-85.333v128zM170.667 832v-64c0-11.776 9.557-21.333 21.333-21.333h128c11.776 0 21.333 9.557 21.333 21.333v64h341.333v-64c0-11.776 9.557-21.333 21.333-21.333h128c11.776 0 21.333 9.557 21.333 21.333v64h128v-170.667h-938.667v170.667h128zM42.667-21.333v640h938.667v-640h-938.667zM917.333 448c11.776 0 21.333 9.557 21.333 21.333s-9.557 21.333-21.333 21.333h-192v64c0 11.776-9.557 21.333-21.333 21.333s-21.333-9.557-21.333-21.333v-64h-170.667v64c0 11.776-9.557 21.333-21.333 21.333s-21.333-9.557-21.333-21.333v-64h-170.667v64c0 11.776-9.557 21.333-21.333 21.333s-21.333-9.557-21.333-21.333v-64h-149.333c-11.776 0-21.333-9.557-21.333-21.333s9.557-21.333 21.333-21.333h149.333v-128h-149.333c-11.776 0-21.333-9.557-21.333-21.333s9.557-21.333 21.333-21.333h149.333v-128h-149.333c-11.776 0-21.333-9.557-21.333-21.333s9.557-21.333 21.333-21.333h149.333v-64c0-11.776 9.557-21.333 21.333-21.333s21.333 9.557 21.333 21.333v64h170.667v-64c0-11.776 9.557-21.333 21.333-21.333s21.333 9.557 21.333 21.333v64h170.667v-64c0-11.776 9.557-21.333 21.333-21.333s21.333 9.557 21.333 21.333v64h192c11.776 0 21.333 9.557 21.333 21.333s-9.557 21.333-21.333 21.333h-192v128h192c11.776 0 21.333 9.557 21.333 21.333s-9.557 21.333-21.333 21.333h-192v128h192zM298.667 448h170.667v-128h-170.667v128zM298.667 149.333v128h170.667v-128h-170.667zM682.667 149.333h-170.667v128h170.667v-128zM682.667 320h-170.667v128h170.667v-128z" />
<glyph unicode="&#xe911;" glyph-name="file-new-1" d="M894.336 690.859c-1.067 2.603-2.645 4.949-4.608 6.912l-255.957 255.957c-1.963 1.92-4.309 3.541-6.912 4.565-2.56 1.109-5.333 1.707-8.192 1.707h-469.333c-11.776 0-21.333-9.557-21.333-21.333v-981.333c0-11.776 9.557-21.333 21.333-21.333h725.333c11.776 0 21.333 9.557 21.333 21.333v725.333c0 2.859-0.597 5.632-1.664 8.192zM640 887.168l183.168-183.168h-183.168v183.168zM170.667-21.333v938.667h426.667v-234.667c0-11.776 9.557-21.333 21.333-21.333h234.667v-682.667h-682.667z" />
<glyph unicode="&#xe912;" glyph-name="link-2" d="M927.232 788.224l-75.008 75.008c-56.149 56.192-155.008 56.192-211.157 0l-169.173-169.131c-41.6-41.557-41.6-109.312 0.043-150.912l3.669-3.627c8.405-8.32 21.888-8.277 30.165 0.085 8.32 8.363 8.277 21.845-0.085 30.165l-3.627 3.627c-24.96 24.917-24.96 65.536 0 90.496l169.173 169.173c40.064 40.107 110.763 40.107 150.827 0l74.965-74.965c41.557-41.6 41.557-109.312 0-150.869l-169.173-169.131c-24.96-25.003-65.536-25.003-90.496 0l-3.669 3.669c-8.32 8.32-21.845 8.32-30.165 0s-8.32-21.845 0-30.165l3.669-3.669c20.779-20.779 48.085-31.147 75.435-31.147s54.613 10.411 75.435 31.147l169.173 169.173c58.197 58.112 58.197 152.832 0 211.072zM548.437 356.437c-8.32 8.32-21.845 8.32-30.165 0s-8.32-21.845 0-30.165l3.669-3.669c24.96-24.917 24.96-65.536 0-90.496l-169.173-169.216c-40.021-40.064-110.72-40.064-150.827 0l-75.008 75.008c-41.557 41.557-41.557 109.269 0 150.869l169.173 169.131c24.96 24.96 65.579 24.917 90.539-0.043l3.669-3.627c8.405-8.32 21.888-8.277 30.165 0.085 8.32 8.363 8.277 21.845-0.085 30.165l-3.627 3.627c-41.6 41.557-109.269 41.557-150.827 0l-169.173-169.216c-58.155-58.197-58.155-152.917 0-211.157l74.965-74.965c28.117-28.117 65.621-43.605 105.6-43.605s77.483 15.488 105.6 43.605l169.173 169.131c41.6 41.557 41.6 109.312 0 150.869l-3.669 3.669zM331.008 266.965c4.181-4.139 9.643-6.229 15.104-6.229s10.923 2.091 15.104 6.229l331.819 331.904c8.32 8.32 8.32 21.803 0 30.165s-21.845 8.363-30.165 0l-331.819-331.861c-8.363-8.363-8.363-21.845-0.043-30.208z" />
<glyph unicode="&#xe913;" glyph-name="money-bag-euro" d="M576 384c11.776 0 21.333 9.557 21.333 21.333s-9.557 21.333-21.333 21.333c-68.992 0-128.256-43.947-155.136-106.667h-36.864c-11.776 0-21.333-9.557-21.333-21.333s9.557-21.333 21.333-21.333h24.363c-1.749-10.411-3.029-21.035-3.029-32 0-3.627 0.853-7.083 0.981-10.667h-22.315c-11.776 0-21.333-9.557-21.333-21.333s9.557-21.333 21.333-21.333h29.739c21.589-73.856 85.717-128 162.261-128 11.776 0 21.333 9.557 21.333 21.333s-9.557 21.333-21.333 21.333c-53.12 0-98.731 35.285-118.101 85.333h96.768c11.776 0 21.333 9.557 21.333 21.333s-9.557 21.333-21.333 21.333h-105.685c-0.256 3.584-0.981 7.040-0.981 10.667 0 11.051 1.493 21.675 3.797 32h102.869c11.776 0 21.333 9.557 21.333 21.333s-9.557 21.333-21.333 21.333h-86.187c22.784 38.357 62.336 64 107.52 64zM362.667 618.667c-11.776 0-21.333-9.557-21.333-21.333s9.557-21.333 21.333-21.333h298.667c11.776 0 21.333 9.557 21.333 21.333s-9.557 21.333-21.333 21.333h-298.667zM384 682.667c0-11.776 9.557-21.333 21.333-21.333h213.333c11.776 0 21.333 9.557 21.333 21.333 0 77.824 80.896 200.235 81.749 201.515 5.248 7.851 4.651 18.219-1.365 25.472-6.059 7.211-16.213 9.685-24.789 5.973l-129.195-55.381-34.603 86.357c-6.4 16.213-33.152 16.213-39.595 0l-34.603-86.357-129.195 55.339c-8.661 3.712-18.773 1.28-24.789-5.973-6.016-7.211-6.613-17.579-1.365-25.429 0.853-1.28 81.749-123.691 81.749-201.515zM460.928 812.416c5.333-2.261 11.264-2.304 16.597-0.085 5.291 2.176 9.515 6.443 11.605 11.776l22.869 57.088 22.869-57.131c2.133-5.333 6.315-9.6 11.605-11.776 5.333-2.176 11.264-2.133 16.597 0.085l89.429 38.315c-21.931-40.917-47.531-97.28-53.76-146.731h-173.483c-6.229 49.451-31.829 105.771-53.76 146.731l89.429-38.272zM643.285 529.152c-3.669 2.688-8.107 4.181-12.672 4.181h-237.227c-4.523 0-9.003-1.493-12.672-4.181-103.253-76.16-210.048-223.104-210.048-337.152 0-174.635 108.459-256 341.333-256s341.333 81.365 341.333 256c0 114.091-106.795 261.035-210.048 337.152zM512-21.333c-263.168 0-298.667 107.819-298.667 213.333 0 97.28 96.085 229.12 187.179 298.667h223.019c91.051-69.547 187.136-201.344 187.136-298.667 0-105.515-35.499-213.333-298.667-213.333z" />
<glyph unicode="&#xe914;" glyph-name="align-justify" d="M746.667-21.333h-725.333c-11.776 0-21.333-9.557-21.333-21.333s9.557-21.333 21.333-21.333h725.333c11.776 0 21.333 9.557 21.333 21.333s-9.557 21.333-21.333 21.333zM21.333 832h981.333c11.776 0 21.333 9.557 21.333 21.333s-9.557 21.333-21.333 21.333h-981.333c-11.776 0-21.333-9.557-21.333-21.333s9.557-21.333 21.333-21.333zM1002.667 746.667h-981.333c-11.776 0-21.333-9.557-21.333-21.333s9.557-21.333 21.333-21.333h981.333c11.776 0 21.333 9.557 21.333 21.333s-9.557 21.333-21.333 21.333zM1002.667 618.667h-981.333c-11.776 0-21.333-9.557-21.333-21.333s9.557-21.333 21.333-21.333h981.333c11.776 0 21.333 9.557 21.333 21.333s-9.557 21.333-21.333 21.333zM1002.667 490.667h-981.333c-11.776 0-21.333-9.557-21.333-21.333s9.557-21.333 21.333-21.333h981.333c11.776 0 21.333 9.557 21.333 21.333s-9.557 21.333-21.333 21.333zM1002.667 362.667h-981.333c-11.776 0-21.333-9.557-21.333-21.333s9.557-21.333 21.333-21.333h981.333c11.776 0 21.333 9.557 21.333 21.333s-9.557 21.333-21.333 21.333zM1002.667 234.667h-981.333c-11.776 0-21.333-9.557-21.333-21.333s9.557-21.333 21.333-21.333h981.333c11.776 0 21.333 9.557 21.333 21.333s-9.557 21.333-21.333 21.333zM1002.667 106.667h-981.333c-11.776 0-21.333-9.557-21.333-21.333s9.557-21.333 21.333-21.333h981.333c11.776 0 21.333 9.557 21.333 21.333s-9.557 21.333-21.333 21.333z" />
<glyph unicode="&#xe915;" glyph-name="arrow-up-1" d="M661.333-64.171h-298.667c-11.776 0-21.333 9.557-21.333 21.333v533.333h-256c-8.619 0-16.384 5.205-19.712 13.184s-1.493 17.152 4.608 23.253l426.667 426.837c8.021 8.021 22.187 8.021 30.165 0l426.667-426.837c6.101-6.101 7.936-15.275 4.608-23.253s-11.093-13.184-19.712-13.184h-256v-533.333c0.043-11.776-9.515-21.333-21.291-21.333zM384-21.504h256v533.333c0 11.776 9.557 21.333 21.333 21.333h225.835l-375.168 375.339-375.168-375.339h225.835c11.776 0 21.333-9.557 21.333-21.333v-533.333z" />
<glyph unicode="&#xe916;" glyph-name="arrow-down-1" d="M512-64.555c-5.675 0-11.093 2.261-15.104 6.229l-426.667 427.051c-6.101 6.144-7.936 15.275-4.608 23.253s11.093 13.184 19.712 13.184h256v533.333c0 11.776 9.557 21.333 21.333 21.333h298.667c11.776 0 21.333-9.557 21.333-21.333v-533.333h256c8.619 0 16.384-5.205 19.712-13.184s1.493-17.109-4.608-23.253l-426.667-427.051c-4.011-3.968-9.429-6.229-15.104-6.229zM136.832 362.496l375.168-375.552 375.168 375.552h-225.835c-11.776 0-21.333 9.557-21.333 21.333v533.333h-256v-533.333c0-11.776-9.557-21.333-21.333-21.333h-225.835z" />
<glyph unicode="&#xe917;" glyph-name="bin-1" d="M981.333 832h-298.667v106.667c0 11.776-9.557 21.333-21.333 21.333h-341.333c-11.776 0-21.333-9.557-21.333-21.333v-106.667h-256c-11.776 0-21.333-9.557-21.333-21.333s9.557-21.333 21.333-21.333h85.333v-832c0-11.776 9.557-21.333 21.333-21.333h682.667c11.776 0 21.333 9.557 21.333 21.333v832h128c11.776 0 21.333 9.557 21.333 21.333s-9.557 21.333-21.333 21.333zM341.333 917.333h298.667v-85.333h-298.667v85.333zM810.667-21.333h-640v810.667h640v-810.667zM320 682.667c-11.776 0-21.333-9.557-21.333-21.333v-512c0-11.776 9.557-21.333 21.333-21.333s21.333 9.557 21.333 21.333v512c0 11.776-9.557 21.333-21.333 21.333zM490.667 682.667c-11.776 0-21.333-9.557-21.333-21.333v-512c0-11.776 9.557-21.333 21.333-21.333s21.333 9.557 21.333 21.333v512c0 11.776-9.557 21.333-21.333 21.333zM640 661.333v-512c0-11.776 9.557-21.333 21.333-21.333s21.333 9.557 21.333 21.333v512c0 11.776-9.557 21.333-21.333 21.333s-21.333-9.557-21.333-21.333z" />
<glyph unicode="&#xe918;" glyph-name="close" d="M572.416 447.957l439.125 439.168c16.683 16.597 16.683 43.605 0 60.331-16.683 16.683-43.691 16.683-60.331 0l-439.168-439.168-439.168 439.168c-16.683 16.683-43.691 16.683-60.331 0-16.683-16.725-16.683-43.691 0-60.331l439.125-439.168-439.125-439.168c-16.683-16.725-16.683-43.691 0-60.331 8.32-8.32 19.243-12.501 30.165-12.501s21.845 4.181 30.165 12.501l439.168 439.168 439.168-439.168c8.32-8.32 19.243-12.501 30.165-12.501s21.845 4.181 30.165 12.501c16.683 16.64 16.683 43.605 0 60.331l-439.125 439.168z" />
<glyph unicode="&#xe919;" glyph-name="file-excel" d="M932.437 697.771l-256 256c-4.011 3.968-9.472 6.229-15.104 6.229h-554.667c-11.776 0-21.333-9.557-21.333-21.333v-981.333c0-11.776 9.557-21.333 21.333-21.333h810.667c11.776 0 21.333 9.557 21.333 21.333v725.333c0 5.675-2.261 11.093-6.229 15.104zM392.021 171.904c5.077-10.624 0.597-23.381-10.027-28.459-2.987-1.408-6.101-2.091-9.173-2.091-7.979 0-15.616 4.437-19.285 12.117l-33.707 70.4-33.707-70.4c-3.669-7.68-11.307-12.117-19.285-12.117-3.072 0-6.229 0.683-9.173 2.091-10.624 5.077-15.104 17.835-10.027 28.459l48.555 101.461-48.555 101.461c-5.077 10.624-0.597 23.381 10.027 28.416 10.667 5.163 23.339 0.683 28.459-9.984l33.707-70.4 33.707 70.4c5.077 10.581 17.792 15.147 28.459 9.984 10.624-5.035 15.104-17.792 10.027-28.416l-48.555-101.461 48.555-101.461zM597.205 141.355h-105.813c-11.776 0-21.333 9.557-21.333 21.333v221.355c0 11.776 9.557 21.333 21.333 21.333s21.333-9.557 21.333-21.333v-200.021h84.48c11.776 0 21.333-9.557 21.333-21.333s-9.557-21.333-21.333-21.333zM732.629 136.491c-39.168 0-71.808 32.085-74.197 73.088-0.725 11.733 8.277 21.845 20.011 22.528 12.331 0.299 21.845-8.277 22.571-20.053 1.109-18.475 14.976-32.896 31.616-32.896 17.408 0 31.573 15.829 31.573 35.285 0 21.845-13.739 29.867-34.389 35.115-0.043 0.085-5.12 1.408-5.163 1.408-54.784 14.421-66.304 49.579-66.304 76.501 0 42.923 33.365 77.867 74.325 77.867 39.125 0 71.723-32.043 74.112-72.96 0.725-11.819-8.277-21.931-20.011-22.571-12.373-0.725-21.845 8.235-22.571 20.011-1.109 18.432-14.976 32.896-31.531 32.896-17.451 0-31.659-15.787-31.659-35.2 0-21.717 13.781-29.781 34.475-35.243l-0.384-21.931 5.333 20.565c54.912-14.080 66.432-49.365 66.432-76.459 0-42.923-33.323-77.952-74.24-77.952zM661.333 682.667v256l256-256h-256z" />
<glyph unicode="&#xe91a;" glyph-name="logo-dropbox" d="M21.333 403.84l288.683-188.331 201.984 168.491-291.072 179.627zM310.016 911.701l-288.683-188.245 199.595-159.829 291.072 179.627zM1002.667 723.456l-288.683 188.245-201.984-168.448 291.072-179.627zM512 384l201.984-168.491 288.683 188.331-199.595 159.787zM756.053 192v0c-14.592-9.515-25.771-19.157-42.027-19.157-17.408 0-25.131 7.979-38.4 19.157v0l-163.627 136.405-163.584-136.405c-13.312-11.179-20.992-19.157-38.4-19.157-8.064 0-16.171 2.304-23.296 6.955-0.597 0.384-50.944 33.195-52.011 33.92v-83.499l277.931-173.397 276.736 173.397v83.499l-33.323-21.717z" />
<glyph unicode="&#xe91b;" glyph-name="logo-youtube-clip" d="M856.021 789.333h-688c-92.629 0-168.021-75.435-168.021-168.064v-389.163c0-92.672 75.392-168.107 168.021-168.107h688c92.587 0 167.979 75.435 167.979 168.064v389.205c0 92.629-75.392 168.064-167.979 168.064zM705.621 425.344l-288.768-184.789c-3.499-2.219-7.509-3.371-11.52-3.371-3.541 0-7.040 0.896-10.24 2.688-6.827 3.669-11.093 10.88-11.093 18.645v369.579c0 7.808 4.267 14.976 11.093 18.731 6.869 3.712 15.189 3.413 21.76-0.768l288.811-184.832c6.144-3.925 9.813-10.667 9.813-17.963s-3.712-13.995-9.856-17.92z" />
<glyph unicode="&#xe91c;" glyph-name="logo-everynote" d="M110.848 768l166.485 161.707v-161.707h-166.485zM833.408 808.661c-16.981 29.227-105.685 62.933-151.723 62.933h-118.613c0 0-25.515 68.437-115.072 68.437s-85.333-39.083-85.333-73.173v-137.899l-46.208-44.459h-187.563c0 0-58.027-33.749-58.027-109.312s23.424-338.773 180.821-363.136c186.24-28.843 218.112 57.685 218.112 68.096 0 43.819 1.067 110.251 1.067 110.251s54.571-104.192 136.917-104.192 130.261-47.36 130.261-96.043v-90.155c0 0-3.072-56.363-51.499-56.363h-103.296c0 0-33.92 26.368-33.92 62.891 0 36.565 16.597 46.507 35.925 46.507 19.371 0 35.243-2.261 35.243-2.261v76.843c0 0-155.947 0.981-155.947-118.4 0.043-119.339 81.579-150.016 146.987-150.016h106.539c0 0 192.427 24.747 192.427 404.736-0.043 380.117-60.16 415.488-77.099 444.715zM642.091 467.968c0 0 9.387 62.72 45.696 62.72s86.272-83.797 86.272-83.797-113.835 21.077-131.968 21.077z" />
<glyph unicode="&#xe91d;" glyph-name="check-1" d="M1005.909 952.149c-19.285 13.611-45.867 8.96-59.435-10.283l-632.149-897.195-241.493 241.451c-16.64 16.683-43.691 16.683-60.331 0-16.683-16.725-16.683-43.691 0-60.331l277.333-277.333c8.021-8.021 18.901-12.501 30.165-12.501 13.568 0 26.752 6.528 34.859 18.091l661.333 938.667c13.568 19.285 8.96 45.909-10.283 59.435z" />
<glyph unicode="&#xe91e;" glyph-name="calendar-1" d="M0-42.667c0-11.776 9.6-21.333 21.333-21.333h981.333c11.776 0 21.333 9.557 21.333 21.333v661.333h-1024v-661.333zM490.667 469.333c0 11.776 9.6 21.333 21.333 21.333h213.333c6.997 0 13.568-3.413 17.536-9.173s4.864-13.099 2.475-19.669l-53.205-141.824h11.861c11.776 0 21.333-9.557 21.333-21.333s-9.557-21.333-21.333-21.333h-27.861l-58.795-156.843c-3.243-8.576-11.349-13.824-20.011-13.824-2.517 0-4.992 0.384-7.509 1.323-11.008 4.181-16.597 16.469-12.501 27.52l53.248 141.824h-54.571c-11.733 0-21.333 9.557-21.333 21.333s9.6 21.333 21.333 21.333h70.571l48 128h-161.237v-21.333c0-11.776-9.557-21.333-21.333-21.333-11.733 0-21.333 9.557-21.333 21.333v42.667zM335.104 368.896c-8.32-8.32-21.845-8.32-30.165 0s-8.32 21.845 0 30.165l85.333 85.333c6.101 6.144 15.232 8.021 23.253 4.608 7.979-3.243 13.141-11.051 13.141-19.669v-320h64c11.776 0 21.333-9.557 21.333-21.333s-9.557-21.333-21.333-21.333h-170.667c-11.733 0-21.333 9.557-21.333 21.333s9.6 21.333 21.333 21.333h64v268.501l-48.896-48.939zM1002.667 874.667h-149.333v64c0 11.776-9.557 21.333-21.333 21.333h-128c-11.733 0-21.333-9.557-21.333-21.333v-64h-341.333v64c0 11.776-9.557 21.333-21.333 21.333h-128c-11.733 0-21.333-9.557-21.333-21.333v-64h-149.333c-11.733 0-21.333-9.557-21.333-21.333v-192h1024v192c0 11.776-9.557 21.333-21.333 21.333zM298.667 789.333h-85.333v128h85.333v-128zM810.667 789.333h-85.333v128h85.333v-128z" />
<glyph unicode="&#xe91f;" glyph-name="dollar-sign" horiz-adv-x="623" d="M78.774 805.421c-20.035-20.48-35.795-44.299-46.748-70.745-11.398-27.425-17.185-56.454-17.185-86.328s5.788-58.902 17.185-86.283c10.952-26.49 26.713-50.31 46.748-70.745 19.99-20.48 43.364-36.597 69.32-47.905 26.936-11.754 55.519-17.675 84.903-17.675h48.974v-356.174h-48.974c-23.196 0-45.813 4.675-67.228 13.98-20.703 8.949-39.268 21.816-55.207 38.2-16.072 16.339-28.672 35.395-37.443 56.587-4.675 11.309-17.675 16.785-29.073 12.065-11.353-4.675-16.74-17.675-12.065-29.073 10.952-26.49 26.713-50.31 46.748-70.745 19.946-20.48 43.32-36.552 69.32-47.905 27.025-11.665 55.608-17.631 84.947-17.631h48.974v-66.783c0-12.288 9.973-22.261 22.261-22.261s22.261 9.973 22.261 22.261v66.783h48.974c29.34 0 57.967 5.966 84.947 17.631 26.001 11.353 49.33 27.425 69.32 47.861 20.035 20.48 35.795 44.299 46.748 70.79 11.353 27.425 17.141 56.498 17.141 86.328s-5.788 58.902-17.185 86.283c-10.952 26.49-26.713 50.31-46.748 70.745-19.946 20.435-43.275 36.552-69.32 47.905-26.936 11.754-55.519 17.675-84.903 17.675h-48.974v356.174h48.974c23.24 0 45.857-4.675 67.228-13.935 20.658-8.993 39.224-21.816 55.207-38.2 16.072-16.384 28.672-35.439 37.443-56.632 4.719-11.353 17.675-16.829 29.073-12.065 11.353 4.675 16.74 17.72 12.065 29.073-10.952 26.49-26.713 50.31-46.748 70.745-19.99 20.48-43.364 36.597-69.32 47.905-26.98 11.709-55.563 17.631-84.947 17.631h-48.974v66.783c0 12.288-9.973 22.261-22.261 22.261s-22.261-9.973-22.261-22.261v-66.783h-48.974c-29.384 0-57.967-5.921-84.947-17.631-25.956-11.309-49.286-27.425-69.276-47.905v0zM375.467 425.739c23.24 0 45.857-4.675 67.183-13.935 20.747-8.993 39.313-21.86 55.251-38.244 16.072-16.339 28.672-35.395 37.443-56.587 9.127-22.038 13.757-45.368 13.757-69.32s-4.63-47.282-13.802-69.276c-8.771-21.237-21.326-40.248-37.443-56.632-15.939-16.339-34.504-29.206-55.207-38.155-21.37-9.35-43.987-14.024-67.183-14.024h-48.974v356.174h48.974zM232.997 826.435h48.974v-356.174h-48.974c-23.24 0-45.857 4.675-67.228 13.935-20.658 8.993-39.224 21.816-55.207 38.2-16.072 16.429-28.627 35.484-37.398 56.721-9.171 21.949-13.802 45.234-13.802 69.231s4.63 47.282 13.802 69.276c8.771 21.192 21.326 40.248 37.398 56.676 15.983 16.384 34.549 29.206 55.207 38.2 21.37 9.261 43.987 13.935 67.228 13.935v0z" />
<glyph unicode="&#xe920;" glyph-name="report-problem-triangle" d="M469.333 569.472v-326.485c0-11.819 9.557-21.333 21.333-21.333s21.333 9.515 21.333 21.333v326.485c0 11.776-9.557 21.333-21.333 21.333s-21.333-9.557-21.333-21.333zM976.725-28.416l-466.987 933.973c-7.253 14.464-30.933 14.464-38.187 0l-469.333-938.667c-3.285-6.613-2.944-14.464 0.896-20.736 3.968-6.315 10.837-10.155 18.219-10.155h938.667c0.299 0 0.64 0 0.853 0 11.776 0 21.333 9.557 21.333 21.333 0 5.461-2.048 10.496-5.461 14.251zM55.851-21.333l434.816 869.632 434.816-869.632h-869.632zM533.333 106.667c0-23.564-19.103-42.667-42.667-42.667s-42.667 19.103-42.667 42.667c0 23.564 19.103 42.667 42.667 42.667s42.667-19.103 42.667-42.667z" />
<glyph unicode="&#xe921;" glyph-name="bullet" d="M993.627 448c0-273.184-215.632-494.644-481.627-494.644s-481.627 221.46-481.627 494.644c0 273.184 215.632 494.644 481.627 494.644s481.627-221.46 481.627-494.644z" />
<glyph unicode="&#xe922;" glyph-name="text" d="M832 960h-682.667c-23.595 0-42.667-19.115-42.667-42.667v-128c0-23.595 19.072-42.667 42.667-42.667 23.552 0 42.667 19.072 42.667 42.667v85.333h256v-853.333h-106.667c-23.595 0-42.667-19.115-42.667-42.667 0-23.595 19.072-42.667 42.667-42.667h298.667c23.552 0 42.667 19.072 42.667 42.667 0 23.552-19.115 42.667-42.667 42.667h-106.667v853.333h256v-85.333c0-23.595 19.072-42.667 42.667-42.667 23.552 0 42.667 19.072 42.667 42.667v128c0 23.552-19.115 42.667-42.667 42.667z" />
<glyph unicode="&#xe923;" glyph-name="infomation-circle" d="M490.667 917.333c-270.549 0-490.667-220.117-490.667-490.667s220.117-490.667 490.667-490.667 490.667 220.117 490.667 490.667c0 270.549-220.117 490.667-490.667 490.667zM490.667-21.333c-247.040 0-448 200.96-448 448s200.96 448 448 448 448-200.96 448-448c0-247.040-200.96-448-448-448zM618.667 149.333h-106.667v362.667c0 11.776-9.557 21.333-21.333 21.333h-85.333c-11.776 0-21.333-9.557-21.333-21.333s9.557-21.333 21.333-21.333h64v-341.333h-106.667c-11.776 0-21.333-9.557-21.333-21.333s9.557-21.333 21.333-21.333h256c11.776 0 21.333 9.557 21.333 21.333s-9.557 21.333-21.333 21.333zM512 682.667c0-23.564-19.103-42.667-42.667-42.667s-42.667 19.103-42.667 42.667c0 23.564 19.103 42.667 42.667 42.667s42.667-19.103 42.667-42.667z" />
<glyph unicode="&#xe924;" glyph-name="file-2" horiz-adv-x="1073" d="M1072.762 204.19v633.905c0 67.194-54.711 121.905-121.905 121.905h-828.952c-67.194 0-121.905-54.711-121.905-121.905v-780.19c0-67.194 54.711-121.905 121.905-121.905h707.048c6.924 0 13.507 2.926 18.139 8.094l219.429 243.81c1.073 1.17 1.658 2.633 2.438 3.998 0.683 1.073 1.512 2.048 1.999 3.267 1.122 2.828 1.804 5.9 1.804 9.021v0zM48.762 57.905v780.19c0 40.326 32.817 73.143 73.143 73.143h828.952c40.326 0 73.143-32.817 73.143-73.143v-609.524h-219.429c-13.458 0-24.381-10.923-24.381-24.381v-219.429h-658.286c-40.326 0-73.143 32.817-73.143 73.143v0zM828.952-3.145v182.955h164.669l-164.669-182.955zM682.667 228.571h-341.333v195.048h585.143c13.458 0 24.381 10.923 24.381 24.381s-10.923 24.381-24.381 24.381h-585.143v195.048h585.143c13.458 0 24.381 10.923 24.381 24.381s-10.923 24.381-24.381 24.381h-585.143v97.524c0 13.458-10.923 24.381-24.381 24.381s-24.381-10.923-24.381-24.381v-97.524h-146.286c-13.458 0-24.381-10.923-24.381-24.381s10.923-24.381 24.381-24.381h146.286v-195.048h-146.286c-13.458 0-24.381-10.923-24.381-24.381s10.923-24.381 24.381-24.381h146.286v-195.048h-146.286c-13.458 0-24.381-10.923-24.381-24.381s10.923-24.381 24.381-24.381h146.286v-97.524c0-13.458 10.923-24.381 24.381-24.381s24.381 10.923 24.381 24.381v97.524h341.333c13.458 0 24.381 10.923 24.381 24.381s-10.923 24.381-24.381 24.381v0z" />
<glyph unicode="&#xe925;" glyph-name="file-checklist" d="M894.336 690.859c-1.067 2.645-2.645 4.949-4.608 6.869l-255.957 256c-1.963 1.92-4.309 3.499-6.912 4.565-2.56 1.109-5.333 1.707-8.192 1.707h-469.333c-11.776 0-21.333-9.557-21.333-21.333v-981.333c0-11.776 9.557-21.333 21.333-21.333h725.333c11.776 0 21.333 9.557 21.333 21.333v725.333c0 2.816-0.597 5.632-1.664 8.192zM640 887.168l183.168-183.168h-183.168v183.168zM170.667-21.333v938.667h426.667v-234.667c0-11.776 9.557-21.333 21.333-21.333h234.667v-682.667h-682.667zM704 533.333h-170.667c-11.776 0-21.333-9.557-21.333-21.333s9.557-21.333 21.333-21.333h170.667c11.776 0 21.333 9.557 21.333 21.333s-9.557 21.333-21.333 21.333zM704 362.667h-170.667c-11.776 0-21.333-9.557-21.333-21.333s9.557-21.333 21.333-21.333h170.667c11.776 0 21.333 9.557 21.333 21.333s-9.557 21.333-21.333 21.333zM704 192h-170.667c-11.776 0-21.333-9.557-21.333-21.333s9.557-21.333 21.333-21.333h170.667c11.776 0 21.333 9.557 21.333 21.333s-9.557 21.333-21.333 21.333zM432.896 612.437l-91.563-91.605-48.896 48.939c-8.32 8.32-21.845 8.32-30.165 0s-8.32-21.845 0-30.165l64-64c4.139-4.181 9.6-6.272 15.061-6.272s10.923 2.091 15.104 6.229l106.667 106.667c8.32 8.32 8.32 21.845 0 30.165s-21.845 8.363-30.208 0.043zM432.896 441.771l-91.563-91.605-48.896 48.896c-8.32 8.32-21.845 8.32-30.165 0s-8.32-21.845 0-30.165l64-64c4.139-4.139 9.6-6.229 15.061-6.229s10.923 2.091 15.104 6.229l106.667 106.667c8.32 8.32 8.32 21.845 0 30.165s-21.845 8.363-30.208 0.043zM432.896 271.104l-91.563-91.605-48.896 48.896c-8.32 8.32-21.845 8.32-30.165 0s-8.32-21.845 0-30.165l64-64c4.139-4.139 9.6-6.229 15.061-6.229s10.923 2.091 15.104 6.229l106.667 106.667c8.32 8.32 8.32 21.845 0 30.165s-21.845 8.363-30.208 0.043z" />
<glyph unicode="&#xe926;" glyph-name="rank-army-star-2" d="M1022.848 582.997c-2.987 8.576-11.093 14.336-20.181 14.336h-347.563l-122.965 348.459c-6.016 17.024-34.261 17.024-40.235 0l-123.008-348.459h-347.563c-9.088 0-17.195-5.76-20.181-14.336-2.944-8.619-0.171-18.133 6.997-23.765l286.848-225.408-123.264-369.749c-2.901-8.832 0.171-18.517 7.68-24.021s17.707-5.461 25.216 0.043l307.371 225.451 307.371-225.408c3.755-2.816 8.192-4.139 12.629-4.139s8.832 1.323 12.587 4.096c7.509 5.461 10.581 15.189 7.68 24.021l-123.264 369.749 286.848 225.408c7.168 5.589 9.941 15.104 6.997 23.723zM690.816 358.101c-7.083-5.547-9.899-14.976-7.083-23.552l106.837-320.384-265.941 195.029c-3.755 2.773-8.192 4.139-12.629 4.139s-8.875-1.365-12.629-4.139l-265.941-195.029 106.837 320.384c2.816 8.576 0 17.963-7.083 23.552l-250.197 196.565h301.013c9.045 0 17.109 5.675 20.139 14.208l107.861 305.707 107.861-305.664c3.029-8.576 11.093-14.251 20.139-14.251h301.013l-250.197-196.565z" />
<glyph unicode="&#xe927;" glyph-name="star-full" horiz-adv-x="1161" d="M572.912 167.525l-354.079-231.525 124.914 387.979-343.747 244.888 431.28 8.259 141.632 382.875 141.632-382.875 431.28-8.259-343.747-244.888 124.914-387.979z" />
<glyph unicode="&#xe928;" glyph-name="check-box-2" d="M1002.667 959.957h-981.333c-11.776 0-21.333-9.557-21.333-21.333v-981.333c0-11.776 9.557-21.333 21.333-21.333h981.333c11.776 0 21.333 9.557 21.333 21.333v981.333c0 11.776-9.557 21.333-21.333 21.333zM739.925 581.675l-320-298.667c-4.096-3.797-9.344-5.717-14.549-5.717-5.461 0-10.923 2.091-15.104 6.229l-106.667 106.667c-8.32 8.32-8.32 21.845 0 30.165 8.32 8.363 21.845 8.363 30.165 0l92.075-92.075 304.939 284.587c8.619 8.021 22.144 7.595 30.165-0.981 8.064-8.619 7.595-22.144-1.024-30.208z" />
<glyph unicode="&#xe929;" glyph-name="thumbs-up-1" d="M981.333 490.667c0 47.061-38.272 85.333-85.333 85.333h-313.941c12.203 50.133 36.608 158.592 36.608 225.323 0 83.541-49.877 121.557-96.213 121.557-42.453 0-74.453-29.909-74.453-69.547 0-188.587-157.397-320-298.667-320h-128c-11.776 0-21.333-9.557-21.333-21.333v-384c0-11.776 9.557-21.333 21.333-21.333 195.541 0 262.443-28.715 316.203-51.797 40.149-17.28 78.037-33.536 153.131-33.536h277.333c47.061 0 85.333 38.272 85.333 85.333 0 17.579-5.333 33.877-14.464 47.445 33.237 11.691 57.131 43.392 57.131 80.555 0 17.579-5.333 33.877-14.464 47.445 33.237 11.691 57.131 43.392 57.131 80.555 0 17.579-5.333 33.877-14.464 47.445 33.237 11.691 57.131 43.392 57.131 80.555zM896 448h-42.667c-11.776 0-21.333-9.557-21.333-21.333s9.557-21.333 21.333-21.333c23.552 0 42.667-19.157 42.667-42.667s-19.115-42.667-42.667-42.667h-42.667c-11.776 0-21.333-9.557-21.333-21.333s9.557-21.333 21.333-21.333c23.552 0 42.667-19.157 42.667-42.667s-19.115-42.667-42.667-42.667h-42.667c-11.776 0-21.333-9.557-21.333-21.333s9.557-21.333 21.333-21.333c23.552 0 42.667-19.157 42.667-42.667s-19.115-42.667-42.667-42.667h-277.333c-66.304 0-97.195 13.269-136.277 30.080-55.296 23.723-123.691 53.077-311.723 55.125v341.461h106.667c161.451 0 341.333 148.949 341.333 362.667 0 18.475 16.512 26.88 31.787 26.88 24.704 0 53.547-20.651 53.547-78.891 0-81.579-41.557-239.616-41.941-241.195-1.707-6.4-0.341-13.227 3.712-18.475 4.011-5.248 10.283-8.32 16.896-8.32h341.333c23.552 0 42.667-19.157 42.667-42.667s-19.115-42.667-42.667-42.667z" />
<glyph unicode="&#xe92a;" glyph-name="free-text" horiz-adv-x="2765" d="M51.2 960h2662.4v-409.6h-2662.4v409.6zM51.2 345.6h1638.4v-409.6h-1638.4v409.6z" />
<glyph unicode="&#xe92b;" glyph-name="arrow-up-12" d="M64 128c-9.429 0-18.901 3.072-26.795 9.472-18.347 14.848-21.205 41.685-6.357 59.989l448 554.667c7.979 9.899 19.968 15.701 32.683 15.872 11.52-1.024 24.832-5.376 33.024-15.104l469.333-554.667c15.232-17.963 12.971-44.885-4.992-60.117-18.005-15.147-44.928-13.013-60.117 5.035l-435.968 515.243-415.616-514.517c-8.405-10.453-20.779-15.872-33.195-15.872z" />
<glyph unicode="&#xe92c;" glyph-name="arrow-down-12" d="M512 128c-12.544 0-24.448 5.547-32.555 15.104l-469.333 554.667c-15.232 17.963-12.971 44.885 4.992 60.16 18.005 15.147 44.928 13.013 60.117-5.035l436.779-516.181 436.779 516.181c15.232 18.048 42.112 20.224 60.117 5.035 17.963-15.232 20.224-42.155 4.992-60.117l-469.333-554.667c-8.064-9.6-20.011-15.147-32.555-15.147z" />
<glyph unicode="&#xe92d;" glyph-name="caret-up" horiz-adv-x="2432" d="M1118.545 877.933c53.823 45.324 140.733 45.623 194.911 0l1118.545-941.933h-2432l1118.545 941.933z" />
<glyph unicode="&#xe92e;" glyph-name="alarm2" d="M1002.667 192c-58.795 0-106.667 47.829-106.667 106.667v192c0 155.349-95.573 296.576-239.061 355.2-16 66.859-75.093 114.133-144.939 114.133-68.779 0-129.024-48.256-145.067-114.133-143.403-58.624-238.933-199.808-238.933-355.2v-192c0-58.837-47.872-106.667-106.667-106.667-11.776 0-21.333-9.557-21.333-21.333s9.557-21.333 21.333-21.333h981.333c11.776 0 21.333 9.557 21.333 21.333s-9.557 21.333-21.333 21.333zM640 106.667h-256c-11.776 0-21.333-9.557-21.333-21.333 0-82.347 66.987-149.333 149.333-149.333s149.333 66.987 149.333 149.333c0 11.776-9.557 21.333-21.333 21.333z" />
<glyph unicode="&#xe92f;" glyph-name="phone-call-message" d="M204.288 192.555c61.227-65.408 130.304-123.349 205.397-172.117l10.496-6.827c55.637-36.395 118.741-77.611 191.787-77.611h1.237c60.544 0.427 119.851 25.216 162.688 68.011l58.965 58.965c11.904 11.861 18.475 27.691 18.475 44.544s-6.571 32.683-18.475 44.544l-117.888 117.888c-23.851 23.851-65.28 23.851-89.131 0l-76.075-76.032c-6.741-6.741-18.389-8.107-26.027-2.731-106.155 73.472-197.291 164.523-270.805 270.677-5.419 7.893-4.267 19.072 2.731 26.069l76.032 76.032c11.904 11.861 18.475 27.691 18.517 44.544 0 16.853-6.571 32.683-18.475 44.544l-117.888 117.803c-23.851 23.893-65.365 23.808-89.131 0l-58.965-58.923c-10.795-10.795-20.523-22.656-28.928-35.285-46.123-68.949-51.371-161.152-13.397-234.923 42.709-83.029 106.197-171.52 178.859-249.173v0zM74.283 652.971c6.869 10.283 14.848 19.968 23.637 28.8l59.008 58.923c3.84 3.84 8.917 5.973 14.379 5.973s10.539-2.133 14.379-5.973l117.931-117.888c3.84-3.84 5.973-8.96 5.973-14.379s-2.133-10.539-5.973-14.379l-76.075-76.032c-21.675-21.717-24.875-55.595-7.637-80.555 76.459-110.336 171.221-205.056 281.6-281.472 24.064-16.683 59.563-13.227 80.512 7.68l76.075 76.032c7.723 7.68 21.077 7.68 28.8 0l117.931-117.888c3.84-3.84 5.973-8.96 5.973-14.379s-2.133-10.539-5.973-14.379l-58.965-58.965c-34.944-34.901-83.371-55.168-132.821-55.509l-0.939-21.333v21.419c-60.373 0-115.285 35.925-168.448 70.613l-10.581 6.869c-72.192 46.976-138.667 102.613-197.504 165.547-70.059 74.837-131.157 159.915-172.117 239.531-31.061 60.245-26.795 135.467 10.837 191.744v0zM981.333 960h-512c-23.509 0-42.667-19.115-42.667-42.667v-341.333c0-23.552 19.157-42.667 42.667-42.667h42.667v-106.667c0-8.064 4.565-15.445 11.776-19.072 3.029-1.493 6.315-2.261 9.557-2.261 4.523 0 9.045 1.451 12.8 4.267l164.992 123.733h270.208c23.509 0 42.667 19.115 42.667 42.667v341.333c0 23.552-19.157 42.667-42.667 42.667v0zM981.333 576h-277.333c-4.608 0-9.088-1.493-12.8-4.267l-136.533-102.4v85.333c0 11.776-9.557 21.333-21.333 21.333h-64v341.333h512v-341.333zM896 746.667c0-23.564-19.103-42.667-42.667-42.667s-42.667 19.103-42.667 42.667c0 23.564 19.103 42.667 42.667 42.667s42.667-19.103 42.667-42.667zM768 746.667c0-23.564-19.103-42.667-42.667-42.667s-42.667 19.103-42.667 42.667c0 23.564 19.103 42.667 42.667 42.667s42.667-19.103 42.667-42.667zM640 746.667c0-23.564-19.103-42.667-42.667-42.667s-42.667 19.103-42.667 42.667c0 23.564 19.103 42.667 42.667 42.667s42.667-19.103 42.667-42.667z" />
<glyph unicode="&#xe930;" glyph-name="cloud-upload" d="M912.341 622.336c-40.96 39.509-93.995 61.525-150.613 62.805-52.907 99.797-157.824 163.541-271.061 163.541-154.325 0-283.648-114.944-303.915-265.728-43.861 3.285-87.637-10.325-122.368-38.571-40.917-33.237-64.384-82.56-64.384-135.296 0-50.475 15.573-91.477 46.379-121.771 51.84-51.072 128.512-52.651 137.472-52.651 0.384 0 0.64 0 0.768 0h122.155c11.776 0 21.333 9.557 21.333 21.333s-9.557 21.333-21.376 21.333h-122.411c0 0-0.043 0-0.085 0-2.816 0-67.712 0.512-108.117 40.576-22.187 21.973-33.451 52.651-33.451 91.179 0 39.851 17.707 77.099 48.597 102.187 30.976 25.131 70.997 34.816 110.208 26.709 6.059-1.28 12.416 0.171 17.323 3.925s7.979 9.472 8.32 15.659c8.277 139.307 124.032 248.491 263.552 248.491 101.376 0 195.029-59.477 238.635-151.424 3.669-7.723 9.685-12.587 20.096-12.203 50.048 2.091 97.408-16.171 133.333-50.773 36.053-34.816 55.936-81.536 55.936-131.584 0-158.848-158.379-182.016-162.347-182.741h-102.229c-11.776 0-21.333-9.557-21.333-21.333s9.557-21.333 21.333-21.333l105.003 0.171c2.048 0.256 202.24 28.587 202.24 225.237 0 61.739-24.491 119.381-68.992 162.261zM505.771 514.133c-2.005 1.963-4.395 3.541-6.955 4.608-5.248 2.176-11.093 2.176-16.299 0-2.645-1.109-4.992-2.645-6.997-4.608l-127.957-128c-8.32-8.32-8.32-21.845 0-30.165s21.845-8.32 30.165 0l91.605 91.605v-417.835c0-11.776 9.557-21.333 21.333-21.333s21.333 9.557 21.333 21.333v417.835l91.563-91.563c4.181-4.181 9.643-6.229 15.104-6.229s10.923 2.091 15.104 6.229c8.32 8.32 8.32 21.845 0 30.165l-128 127.957z" />
<glyph unicode="&#xe931;" glyph-name="general-file" horiz-adv-x="819" d="M427.79 483.564v68.171h151.319v-68.171h-151.319zM427.79 379.148v68.163h151.319v-68.163h-151.319zM427.79 274.724v68.163h151.319v-68.163h-151.319zM240.091 483.564v68.171h151.319v-68.171h-151.319zM240.091 379.148v68.163h151.319v-68.163h-151.319zM240.091 274.724v68.163h151.319v-68.163h-151.319zM597.29 587.988h-375.38c-10.055 0-18.206-8.134-18.206-18.168v0-313.272c-0.025-10.009 8.077-18.143 18.107-18.168h375.48c10.030-0.025 18.181 8.060 18.206 18.069v313.413c-0.025 10.017-8.168 18.127-18.206 18.127v0zM782.804-27.672h-746.408v951.411h525.499v-202.076c-0.008-10.001 8.11-18.118 18.132-18.127h202.826v-731.2l-0.050-0.008zM598.259 898.122l158.842-158.333h-158.842v158.333zM813.846 734.47l-220.917 220.211c-3.41 3.402-8.027 5.31-12.852 5.318h-561.871c-10.055 0-18.206-8.134-18.206-18.168v0-987.664c-0.033-10.001 8.069-18.135 18.090-18.168h782.903c10.022-0.033 18.173 8.052 18.206 18.052v767.61c-0.008 4.806-1.936 9.423-5.354 12.808v0z" />
<glyph unicode="&#xe932;" glyph-name="text-2" horiz-adv-x="1144" d="M23.843 903.529h1096.784v-90.353h-1096.784v90.353zM23.843 628.706h1096.784v-90.353h-1096.784v90.353zM23.843 353.882h1096.784v-90.353h-1096.784v90.353zM13.804 79.059h634.98v-90.353h-634.98v90.353z" />
<glyph unicode="&#xe933;" glyph-name="phone-call-incoming" d="M732.587 270.72c-20.139 20.181-46.933 31.232-75.435 31.232s-55.253-11.093-75.435-31.232l-16.427-16.469c-88.32 73.941-173.141 158.763-247.040 247.040l16.469 16.427c41.515 41.6 41.515 109.269 0 150.869l-90.539 90.453c-20.139 20.181-46.891 31.232-75.392 31.232-28.459 0-55.253-11.093-75.435-31.189l-49.664-49.664c-49.877-49.877-57.856-128.896-18.859-187.904 146.048-220.8 339.925-414.635 560.683-560.725 24.533-16.171 53.035-24.747 82.432-24.747 39.936 0 77.355 15.488 105.515 43.648l49.664 49.664c41.6 41.557 41.6 109.227 0 150.827l-90.539 90.539zM1017.728 953.728c-8.32 8.32-21.845 8.32-30.165 0l-390.229-390.229v225.835c0 11.776-9.557 21.333-21.333 21.333s-21.333-9.557-21.333-21.333v-277.163c-0.043-5.547 1.963-11.093 6.229-15.275 4.181-4.181 9.643-6.229 15.104-6.229 0.085 0 0.171 0.043 0.256 0.043h277.077c11.776 0 21.333 9.557 21.333 21.333s-9.557 21.291-21.333 21.291h-225.792l390.187 390.229c8.32 8.32 8.32 21.803 0 30.165z" />
<glyph unicode="&#xe934;" glyph-name="phone-52" d="M946.176 212.651l-104.661 104.661c-45.269 45.312-124.373 45.397-169.771 0l-21.163-21.163c-103.851 86.656-203.605 186.453-290.389 290.432l21.205 21.163c46.763 46.848 46.763 122.965 0 169.728l-104.704 104.704c-45.355 45.355-124.416 45.355-169.771 0l-57.344-57.429c-56.619-56.619-65.621-146.261-21.419-213.077 168.619-254.976 392.533-478.891 647.467-647.509 27.819-18.432 60.16-28.117 93.483-28.117 45.269 0 87.723 17.579 119.637 49.493l57.429 57.429c22.656 22.656 35.157 52.779 35.157 84.864 0 32.043-12.501 62.208-35.157 84.821zM916.011 73.131l-57.429-57.429c-41.429-41.472-110.251-48.384-159.403-15.957-250.197 165.504-469.931 385.195-635.435 635.435-33.067 50.048-26.325 117.077 16 159.403l57.387 57.429c14.592 14.635 34.048 22.656 54.699 22.656s40.107-8.021 54.699-22.656l104.704-104.704c30.165-30.123 30.123-79.189 0-109.355l-34.901-34.901c-7.765-7.765-8.363-20.139-1.408-28.587 95.36-116.437 207.232-228.352 323.541-323.584 8.491-6.955 20.821-6.272 28.587 1.408l34.859 34.859c29.269 29.269 80.213 29.269 109.397 0l104.661-104.661c14.635-14.549 22.699-34.005 22.699-54.656s-8.064-40.064-22.656-54.699z" />
<glyph unicode="&#xe935;" glyph-name="calendar-22" horiz-adv-x="1081" d="M1058.37 866.909h-157.63v69.818c0 12.847-10.088 23.273-22.519 23.273s-22.519-10.426-22.519-23.273v-69.818h-180.148v69.818c0 12.847-10.088 23.273-22.519 23.273s-22.519-10.426-22.519-23.273v-69.818h-180.148v69.818c0 12.847-10.088 23.273-22.519 23.273s-22.519-10.426-22.519-23.273v-69.818h-180.148v69.818c0 12.847-10.088 23.273-22.519 23.273s-22.519-10.426-22.519-23.273v-69.818h-157.63c-12.43 0-22.519-10.426-22.519-23.273v-884.364c0-12.847 10.088-23.273 22.519-23.273h1035.852c12.43 0 22.519 10.426 22.519 23.273v884.364c0 12.847-10.088 23.273-22.519 23.273v0zM180.148 820.364v-23.273c0-12.847 10.088-23.273 22.519-23.273s22.519 10.426 22.519 23.273v23.273h180.148v-23.273c0-12.847 10.088-23.273 22.519-23.273s22.519 10.426 22.519 23.273v23.273h180.148v-23.273c0-12.847 10.088-23.273 22.519-23.273s22.519 10.426 22.519 23.273v23.273h180.148v-23.273c0-12.847 10.088-23.273 22.519-23.273s22.519 10.426 22.519 23.273v23.273h135.111v-139.636h-990.815v139.636h135.111zM45.037-17.455v651.636h990.815v-651.636h-990.815zM540.444 587.636c-149.028 0-270.222-125.254-270.222-279.273s121.195-279.273 270.222-279.273c149.028 0 270.222 125.254 270.222 279.273s-121.195 279.273-270.222 279.273v0zM562.963 78.010v20.899c0 12.847-10.088 23.273-22.519 23.273s-22.519-10.426-22.519-23.273v-20.899c-105.972 11.078-189.651 97.606-200.37 207.081h20.222c12.43 0 22.519 10.426 22.519 23.273s-10.088 23.273-22.519 23.273h-20.222c10.719 109.521 94.443 196.003 200.37 207.081v-20.899c0-12.847 10.088-23.273 22.519-23.273s22.519 10.426 22.519 23.273v20.899c105.972-11.078 189.651-97.606 200.37-207.081h-20.222c-12.43 0-22.519-10.426-22.519-23.273s10.088-23.273 22.519-23.273h20.222c-10.719-109.521-94.398-196.003-200.37-207.081v0zM562.963 317.999v83.456c0 12.847-10.088 23.273-22.519 23.273s-22.519-10.426-22.519-23.273v-93.091c0-3.025 0.585-6.051 1.711-8.89 1.126-2.886 2.792-5.446 4.909-7.587l92.866-95.977c4.414-4.561 10.178-6.796 15.943-6.796s11.529 2.281 15.943 6.796c8.782 9.076 8.782 23.831 0 32.908l-86.336 89.181z" />
<glyph unicode="&#xe936;" glyph-name="caret-down" horiz-adv-x="1638" d="M1319.823 704h-1063.822l531.911-471.040z" />
<glyph unicode="&#xe937;" glyph-name="caret-up2" horiz-adv-x="1638" d="M787.912 704l531.911-471.040h-1063.822z" />
<glyph unicode="&#xe938;" glyph-name="caret-double" horiz-adv-x="1638" d="M292.978 385.422h1018.311l-509.156-448.284zM1305.601 511.716l-509.156 448.284-509.156-448.284z" />
<glyph unicode="&#xe939;" glyph-name="clock-22" d="M512 960c-282.325 0-512-229.675-512-512s229.675-512 512-512c282.325 0 512 229.675 512 512s-229.675 512-512 512v0zM512-21.333c-258.773 0-469.333 210.56-469.333 469.333s210.56 469.333 469.333 469.333c258.773 0 469.333-210.56 469.333-469.333s-210.56-469.333-469.333-469.333v0zM512 874.667c-235.264 0-426.667-191.403-426.667-426.667s191.403-426.667 426.667-426.667c235.264 0 426.667 191.403 426.667 426.667s-191.403 426.667-426.667 426.667v0zM512 64c-211.755 0-384 172.245-384 384s172.245 384 384 384c211.755 0 384-172.245 384-384s-172.245-384-384-384v0zM685.737 655.263l-167.247-150.112c-12.576 5.581-26.359 8.872-40.837 8.872-51.047 0-93.044-37.278-93.647-83.053-0.278-22.284 9.096-43.276 26.498-59.062s40.652-24.491 65.479-24.491c10.627 0 20.743 1.958 30.303 4.915l124.322-111.584c4.548-4.082 10.488-6.081 16.428-6.081s11.88 2.041 16.428 6.081c9.049 8.122 9.049 21.326 0 29.448l-117.825 105.753c14.525 14.62 23.713 33.571 23.992 54.522 0.232 17.16-5.429 33.529-15.917 47.358l164.834 147.946c9.049 8.122 9.049 21.326 0 29.448s-23.76 8.164-32.809 0.042v0zM443.498 401.189c-8.585 7.83-13.226 18.243-13.086 29.281 0.325 23.117 21.486 41.901 47.241 41.901 12.344 0 23.899-4.332 32.484-12.121 8.585-7.83 13.226-18.243 13.086-29.281-0.325-23.117-21.486-41.901-47.241-41.901-12.298 0-23.853 4.332-32.484 12.121v0z" />
<glyph unicode="&#xe93a;" glyph-name="location-pin-2" d="M512 960c-188.203 0-341.333-153.131-341.333-341.333 0-181.12 310.315-653.099 323.541-673.067 3.925-6.016 10.624-9.6 17.792-9.6s13.867 3.584 17.792 9.6c13.227 19.968 323.541 491.947 323.541 673.067 0 188.203-153.131 341.333-341.333 341.333zM512-3.413c-66.816 104.448-298.667 477.184-298.667 622.080 0 164.693 133.973 298.667 298.667 298.667s298.667-133.973 298.667-298.667c0-144.853-231.851-517.632-298.667-622.080zM512 768c-82.347 0-149.333-66.987-149.333-149.333s66.987-149.333 149.333-149.333 149.333 66.987 149.333 149.333-66.987 149.333-149.333 149.333zM512 512c-58.795 0-106.667 47.872-106.667 106.667s47.872 106.667 106.667 106.667 106.667-47.872 106.667-106.667-47.872-106.667-106.667-106.667z" />
<glyph unicode="&#xe93b;" glyph-name="microphone" horiz-adv-x="542" d="M271.059 234.667c103.461 0 187.656 86.144 187.656 192v341.333c0 105.856-84.195 192-187.656 192s-187.656-86.144-187.656-192v-341.333c0-105.856 84.195-192 187.656-192v0zM125.104 576h20.851c11.51 0 20.851 9.557 20.851 21.333s-9.341 21.333-20.851 21.333h-20.851v42.667h20.851c11.51 0 20.851 9.557 20.851 21.333s-9.341 21.333-20.851 21.333h-20.851v42.667h20.851c11.51 0 20.851 9.557 20.851 21.333s-9.341 21.333-20.851 21.333h-18.724c10.217 72.192 70.517 128 143.828 128s133.611-55.808 143.828-128h-18.724c-11.51 0-20.851-9.557-20.851-21.333s9.341-21.333 20.851-21.333h20.851v-42.667h-20.851c-11.51 0-20.851-9.557-20.851-21.333s9.341-21.333 20.851-21.333h20.851v-42.667h-20.851c-11.51 0-20.851-9.557-20.851-21.333s9.341-21.333 20.851-21.333h20.851v-149.333c0-82.347-65.471-149.333-145.955-149.333s-145.955 66.987-145.955 149.333v149.333zM20.851 448c-11.51 0-20.851-9.557-20.851-21.333 0-145.707 110.467-265.301 250.208-276.267v-193.067c0-11.776 9.341-21.333 20.851-21.333s20.851 9.557 20.851 21.333v193.067c139.741 10.965 250.208 130.517 250.208 276.267 0 11.776-9.341 21.333-20.851 21.333s-20.851-9.557-20.851-21.333c0-129.365-102.919-234.667-229.357-234.667s-229.357 105.301-229.357 234.667c0 11.776-9.341 21.333-20.851 21.333v0z" />
<glyph unicode="&#xe93c;" glyph-name="telemarketer" d="M897.749 244.309l-237.013 67.285c9.899 9.259 19.371 19.072 27.904 29.739h-52.565c-5.333-4.053-11.392-7.424-17.621-10.411-40.619-33.621-88.021-53.589-116.395-53.589-57.259 0-192 81.067-192 192 0 11.733-9.557 21.333-21.333 21.333-21.077 0-26.667 27.904-26.667 42.667s5.589 42.667 26.667 42.667c10.197 0 18.944 7.168 20.907 17.109l17.963 89.771c112.128 2.987 151.509 34.944 174.464 68.309 22.997-33.323 62.293-65.28 174.464-68.309l17.92-89.728c2.005-9.984 10.752-17.152 20.907-17.152 21.12 0 26.667-27.904 26.667-42.667s-5.547-42.667-26.667-42.667c-11.776 0-21.333-9.6-21.333-21.333 0-4.267-0.555-8.363-0.896-12.544h51.243c1.152 0 2.261 0.213 3.456 0.299 8.192 4.949 15.232 11.861 20.992 20.352h30.891c5.76 0 11.392 0.683 16.896 1.835v-14.336c0-4.267-0.64-8.064-1.579-11.648-8.192-28.885-40.533-38.229-70.528-39.125-145.152 0 26.88 0-126.464 0-5.931 10.283-26.624 16.939-38.229 16.939h-84.651c-18.731 0-33.835-15.189-33.835-33.877 0-17.963 14.763-33.792 33.835-33.792h84.608c11.221 0 32.811 9.899 38.997 20.565 150.912 0-20.053 0 128 0 42.709 0 96.427 19.669 103.040 70.272 0.341 2.645 0.469 5.376 0.512 8.192 0.256 5.205 0.171 32.043 0.171 32.043 22.741 16.469 38.229 43.051 38.229 71.893 0 17.792-5.845 34.773-15.701 49.024-16.341 23.765-43.691 39.979-73.301 39.979h-8.747l9.685 67.797c0.341 3.413 7.637 84.309-53.077 151.424-51.285 56.619-133.888 85.376-245.504 85.376s-194.261-28.757-245.504-85.376c-60.757-67.115-53.419-148.011-52.992-152.32l21.845-152.875c-3.755-10.88-6.059-22.912-6.059-36.096 0-40.576 19.627-72.021 48.896-82.005 5.717-58.752 38.997-107.819 80.043-144.341l-223.701-63.232c-74.539-27.904-124.587-100.181-124.587-179.755v-128h1024v128c0 79.573-50.048 151.851-126.251 180.309zM480.725 554.667c0 12.715-3.797 22.912-11.349 30.421-12.629 12.544-30.251 12.416-47.189 12.245h-10.965c-16.981 0.128-34.517 0.299-47.189-12.245-7.509-7.509-11.307-17.707-11.307-30.421 0-11.776 9.557-21.333 21.333-21.333 11.648 0 21.163 9.344 21.333 20.949 4.011 0.512 10.667 0.469 15.488 0.384h11.648c4.736 0.085 11.52 0.085 15.531-0.384 0.171-11.605 9.685-20.949 21.333-20.949 11.733 0 21.333 9.557 21.333 21.333zM566.016 554.283c4.053 0.469 10.795 0.469 15.531 0.384h11.605c4.779 0.085 11.477 0.085 15.531-0.384 0.213-11.605 9.728-20.949 21.376-20.949 11.776 0 21.333 9.557 21.333 21.333 0 12.715-3.797 22.912-11.349 30.421-12.629 12.544-30.251 12.288-47.189 12.245h-10.923c-17.024 0.171-34.56 0.299-47.189-12.245-7.509-7.509-11.349-17.707-11.349-30.421 0-11.776 9.557-21.333 21.333-21.333 11.648 0 21.12 9.344 21.291 20.949z" />
<glyph unicode="&#xe93d;" glyph-name="search" d="M1017.771-27.563l-384.384 384.384c57.003 64.085 91.947 148.181 91.947 240.512 0 199.979-162.688 362.667-362.667 362.667s-362.667-162.688-362.667-362.667c0-199.979 162.688-362.667 362.667-362.667 92.331 0 176.427 34.944 240.512 91.989l384.384-384.384c4.181-4.181 9.643-6.272 15.104-6.272s10.923 2.091 15.104 6.229c8.32 8.32 8.32 21.845 0 30.208zM42.667 597.333c0 176.427 143.531 320 320 320s320-143.573 320-320c0-176.469-143.531-320-320-320s-320 143.531-320 320z" />
<glyph unicode="&#xe93e;" glyph-name="close-call" horiz-adv-x="866" d="M464.132 284.696c-74.479 2.474-149.156-4.079-221.901-19.485l-10.231-2.154c-54.063-11.322-115.298-24.148-158.195-67.045l-0.777-0.777c-35.325-35.827-55.626-85.224-55.615-135.578l-0.034-69.312c0.032-28.863 23.534-52.366 52.397-52.397l138.55-0.006c27.986-0.006 52.405 24.363 52.374 52.374l0.005 89.399c-0.027 7.949 6.090 15.521 13.688 16.899 105.569 19.185 212.673 19.186 318.276-0.022 7.799-1.431 13.694-8.68 13.696-16.905l-0.005-89.399c0.003-13.993 5.448-27.159 15.33-37.042 9.908-9.908 23.074-15.352 37.042-15.33l138.6-0.006c27.936 0.044 52.355 24.413 52.374 52.374l-0.016 69.312c-0.003 12.589-1.235 25.303-3.745 37.742-13.431 67.635-64.551 124.923-130.232 145.977-73.907 23.714-163.234 38.43-251.58 41.384v0zM412.024 958.94v-124.995c-35.84 1.781-71.213 7.974-104.763 18.662 8.525 32.32 19.511 62.943 33.422 91.106 22.607 8.059 46.486 13.318 71.341 15.227v0zM707.863 705.515h-84.956c-1.23 41.184-5.811 81.563-14.039 120.584 15.736 6.447 30.835 13.954 45.341 22.352 30.241-40.59 49.54-89.579 53.654-142.936v0zM654.209 520.165c-14.548 8.44-29.648 15.905-45.383 22.352 8.186 38.979 12.809 79.357 14.039 120.541h84.956c-4.072-53.315-23.37-102.303-53.612-142.893v0zM298.014 811.041c36.9-11.494 75.285-18.068 114.009-19.85v-85.677h-126.055c1.145 36.052 5.217 71.341 12.046 105.527v0zM298.014 557.574c-6.829 34.228-10.9 69.474-12.046 105.527h126.055v-85.677c-38.724-1.781-77.109-8.398-114.009-19.85v0zM454.438 663.101h126.055c-1.145-36.052-5.175-71.341-12.046-105.527-36.9 11.494-75.285 18.068-114.009 19.85v85.677zM598.773 500.739c9.289-4.029 18.365-8.398 27.188-13.233-12.682-12.385-26.509-23.582-41.354-33.38 5.514 14.972 9.84 30.793 14.166 46.613v0zM598.773 867.876c-4.326 15.82-8.652 31.599-14.166 46.613 14.845-9.798 28.672-20.953 41.354-33.38-8.822-4.835-17.899-9.204-27.188-13.233v0zM568.447 811.041c6.829-34.228 10.9-69.474 12.046-105.527h-126.055v85.719c38.724 1.739 77.109 8.356 114.009 19.807v0zM267.688 867.876c-9.289 4.029-18.365 8.398-27.188 13.233 12.682 12.385 26.509 23.582 41.354 33.38-5.514-14.972-9.84-30.793-14.166-46.613v0zM212.253 848.451c14.548-8.44 29.648-15.905 45.383-22.352-8.186-38.979-12.809-79.357-14.039-120.541h-84.998c4.114 53.315 23.413 102.303 53.654 142.893v0zM243.554 663.101c1.23-41.227 5.853-81.52 14.082-120.414-15.905-6.659-31.005-14.209-45.383-22.564-30.241 40.633-49.54 89.621-53.654 142.978h84.956zM267.731 500.951c4.326-15.948 8.695-31.853 14.209-46.868-14.887 9.84-28.757 21.037-41.481 33.465 8.822 4.793 17.899 9.246 27.272 13.403v0zM340.725 424.945c-13.742 27.866-24.643 58.532-33.253 91.148 33.507 10.646 68.796 16.838 104.593 18.577v-124.952c-24.897 1.866-48.776 7.126-71.341 15.227v0zM454.438 534.67c35.84-1.739 71.213-7.974 104.763-18.662-8.525-32.32-19.511-62.943-33.422-91.063-22.607-8.101-46.486-13.36-71.341-15.227v124.952zM525.779 943.671c13.912-28.163 24.897-58.744 33.422-91.106-33.507-10.688-68.881-16.881-104.721-18.662v125.037c24.812-1.909 48.692-7.168 71.298-15.269v0z" />
<glyph unicode="&#xe93f;" glyph-name="attend-call" d="M176.377 157.825c52.951-56.591 112.688-106.689 177.513-148.855l9.108-5.939c48.084-31.431 102.547-67.031 165.639-67.031h1.143c52.325 0.369 103.58 21.766 140.601 58.804l50.997 50.946c21.203 21.249 21.203 55.816 0 77.065l-101.884 101.893c-20.576 20.585-56.454 20.622-77.030 0l-65.747-65.74c-5.826-5.866-15.893-6.936-22.493-2.361-91.743 63.526-170.506 142.288-234.041 234.073-4.683 6.788-3.687 16.453 2.36 22.503l65.747 65.74c10.288 10.293 15.967 23.979 15.967 38.514 0 14.572-5.679 28.258-15.967 38.514l-101.92 101.93c-20.576 20.511-56.454 20.548-77.030 0l-50.96-50.983c-9.255-9.26-17.7-19.515-25.001-30.509-39.861-59.616-44.397-139.337-11.579-203.122 36.911-71.79 91.78-148.302 154.577-215.443v0zM715.225 958.897v-129.994c-37.274 1.853-74.062 8.293-108.954 19.409 8.866 33.612 20.291 65.46 34.759 94.75 23.511 8.381 48.345 13.851 74.194 15.836v0zM1022.897 695.335h-88.354c-1.279 42.832-6.043 84.825-14.601 125.407 16.365 6.705 32.069 14.512 47.154 23.246 31.451-42.214 51.521-93.162 55.8-148.653v0zM967.097 502.571c-15.13 8.778-30.833 16.542-47.199 23.246 8.513 40.538 13.321 82.531 14.601 125.363h88.354c-4.235-55.447-24.305-106.395-55.756-148.609v0zM596.655 805.083c38.376-11.954 78.297-18.791 118.57-20.644v-89.104h-131.097c1.191 37.494 5.426 74.194 12.527 109.748v0zM596.655 541.477c-7.102 35.597-11.336 72.253-12.527 109.748h131.097v-89.104c-40.273-1.853-80.193-8.734-118.57-20.644v0zM759.335 651.225h131.097c-1.191-37.494-5.382-74.194-12.527-109.748-38.376 11.954-78.297 18.791-118.57 20.644v89.104zM909.444 482.369c9.66-4.191 19.1-8.734 28.275-13.763-13.189-12.88-27.569-24.526-43.008-34.715 5.734 15.571 10.234 32.024 14.733 48.478v0zM909.444 864.191c-4.499 16.453-8.999 32.863-14.733 48.478 15.439-10.19 29.819-21.791 43.008-34.715-9.175-5.029-18.615-9.572-28.275-13.763v0zM877.905 805.083c7.102-35.597 11.336-72.253 12.527-109.748h-131.097v89.148c40.273 1.809 80.193 8.69 118.57 20.6v0zM565.116 864.191c-9.66 4.191-19.1 8.734-28.275 13.763 13.189 12.88 27.569 24.526 43.008 34.715-5.734-15.571-10.234-32.024-14.733-48.478v0zM507.463 843.989c15.13-8.778 30.833-16.542 47.199-23.246-8.513-40.538-13.321-82.531-14.601-125.363h-88.398c4.279 55.447 24.349 106.395 55.8 148.609v0zM540.017 651.225c1.279-42.876 6.087-84.781 14.645-125.23-16.542-6.925-32.245-14.777-47.199-23.467-31.451 42.258-51.521 93.206-55.8 148.697h88.354zM565.16 482.589c4.499-16.586 9.043-33.127 14.777-48.742-15.483 10.234-29.907 21.879-43.14 34.803 9.175 4.985 18.615 9.616 28.363 13.939v0zM641.074 403.543c-14.292 28.981-25.628 60.873-34.583 94.794 34.848 11.072 71.548 17.512 108.777 19.321v-129.95c-25.893 1.941-50.727 7.411-74.194 15.836v0zM759.335 517.657c37.274-1.809 74.062-8.293 108.954-19.409-8.866-33.612-20.291-65.46-34.759-94.706-23.511-8.425-48.345-13.895-74.194-15.836v129.95zM833.53 943.017c14.468-29.29 25.893-61.093 34.759-94.75-34.848-11.116-71.636-17.556-108.909-19.409v130.039c25.805-1.985 50.639-7.455 74.15-15.88v0z" />
<glyph unicode="&#xe940;" glyph-name="close-call-2" horiz-adv-x="2513" d="M2052.571 829.412c-208.393 68.774-460.381 111.305-709.534 119.851-209.762 7.038-420.892-11.965-625.669-56.608l-29.030-6.234c-153.265-33.080-326.959-70.483-447.772-196.467-99.7-103.864-156.784-246.942-156.784-392.633v-201.193c0-83.152 65.783-150.819 146.618-150.819h390.982c80.835 0 146.618 67.668 146.618 150.819v259.51c0 24.433 17.008 45.95 39.587 50.173 296.462 55.602 601.623 55.602 898.281 0 22.579-4.223 39.587-25.74 39.587-50.173v-259.51c0-83.152 65.783-150.819 146.618-150.819h390.982c80.835 0 146.618 67.668 146.618 150.819v201.193c0 36.9-3.519 73.7-10.459 109.294-37.827 195.764-181.807 361.765-366.643 422.797v0z" />
<glyph unicode="&#xe941;" glyph-name="target" horiz-adv-x="896" d="M896 512c0 247.040-200.96 448-448 448s-448-200.96-448-448c0-172.843 98.517-322.816 242.219-397.483l-150.187-141.653c-8.576-8.064-8.96-21.589-0.896-30.123 4.224-4.48 9.856-6.741 15.531-6.741 5.248 0 10.539 1.92 14.635 5.845l162.859 153.643c44.501-17.579 92.416-27.989 142.507-30.379v-107.776c0-11.776 9.557-21.333 21.333-21.333s21.333 9.557 21.333 21.333v107.733c50.091 2.389 98.005 12.8 142.507 30.379l162.859-153.643c4.096-3.883 9.387-5.803 14.635-5.803 5.675 0 11.307 2.261 15.531 6.699 8.064 8.533 7.68 22.059-0.896 30.123l-150.187 141.653c143.701 74.709 242.219 224.683 242.219 397.525v0zM608.597 139.989c-0.469-0.171-0.896-0.427-1.365-0.64-48.896-20.992-102.741-32.683-159.232-32.683s-110.293 11.691-159.189 32.64c-0.469 0.256-0.939 0.469-1.408 0.683-143.829 62.336-244.736 205.568-244.736 372.011 0 223.488 181.845 405.333 405.333 405.333s405.333-181.845 405.333-405.333c0-166.443-100.949-309.675-244.736-372.011v0zM448 832c-176.469 0-320-143.531-320-320s143.531-320 320-320c176.469 0 320 143.531 320 320s-143.531 320-320 320v0zM448 234.667c-152.917 0-277.333 124.416-277.333 277.333s124.416 277.333 277.333 277.333c152.917 0 277.333-124.416 277.333-277.333s-124.416-277.333-277.333-277.333v0zM448 704c-105.856 0-192-86.144-192-192s86.144-192 192-192c105.856 0 192 86.144 192 192s-86.144 192-192 192v0zM448 362.667c-82.347 0-149.333 66.987-149.333 149.333s66.987 149.333 149.333 149.333c82.347 0 149.333-66.987 149.333-149.333s-66.987-149.333-149.333-149.333v0zM448 576c-35.285 0-64-28.715-64-64s28.715-64 64-64c35.285 0 64 28.715 64 64s-28.715 64-64 64v0zM448 490.667c-11.776 0-21.333 9.6-21.333 21.333s9.557 21.333 21.333 21.333c11.776 0 21.333-9.6 21.333-21.333s-9.557-21.333-21.333-21.333v0z" />
<glyph unicode="&#xe942;" glyph-name="telemarketer2" d="M725.333 704c0 11.776-9.557 21.333-21.333 21.333-127.317 0-148.736 35.84-162.944 59.563-4.224 7.083-8.192 13.739-13.995 19.499-8.021 8.021-22.187 8.021-30.165 0-5.76-5.76-9.771-12.416-13.995-19.499-14.123-23.723-35.584-59.563-162.901-59.563-11.776 0-21.333-9.557-21.333-21.333s9.557-21.333 21.333-21.333c125.653 0 167.893 33.536 192 68.523 24.149-34.987 66.389-68.523 192-68.523 11.819 0 21.333 9.557 21.333 21.333zM897.792 244.309l-267.52 75.989c-0.384 0.085-0.768 0-1.152 0.085-1.408 0.299-2.816 0.299-4.309 0.341-1.408 0-2.731 0.128-4.096-0.085-1.152-0.213-2.219-0.683-3.328-1.109-1.536-0.555-2.987-1.024-4.395-1.92-0.299-0.213-0.683-0.256-0.981-0.469-36.565-26.155-77.995-39.808-100.011-39.808-57.259 0-192 81.067-192 192 0 11.776-9.515 21.333-21.333 21.333-23.125 0-36.736 23.125-41.429 42.965-4.779 20.267-1.152 39.893 8.32 44.629 8.363 4.139 13.056 13.312 11.52 22.571l-21.163 126.635c-0.043 0.64-5.931 65.323 42.24 118.528 42.837 47.317 114.816 71.339 213.845 71.339 98.688 0 170.496-23.851 213.376-70.827 47.275-51.797 42.923-116.053 43.221-116.053l-21.333-85.291c-0.213-0.896 0-1.707-0.128-2.56-0.043-0.896-0.469-1.707-0.469-2.603v-128c0-11.776 9.557-21.333 21.333-21.333h42.667c0.085 0 0.128 0 0.213 0l0.171-17.152c-6.272-31.531-35.797-68.181-64.384-68.181h-134.528c-7.424 12.501-20.48 21.333-36.139 21.333h-85.333c-23.552 0-42.667-19.115-42.667-42.667s19.115-42.667 42.667-42.667h85.333c15.616 0 28.672 8.789 36.139 21.333h134.528c51.285 0 96.341 52.949 106.667 106.667v33.195c25.387 14.805 42.667 42.027 42.667 73.472 0 47.061-38.272 85.333-85.333 85.333h-15.403l15.317 61.867c0.341 3.413 7.637 84.309-53.077 151.424-51.285 56.661-133.845 85.376-245.504 85.376s-194.176-28.715-245.461-85.376c-60.715-67.115-53.419-148.011-52.907-152.789l19.2-115.157c-18.219-17.877-25.088-48.981-17.109-82.816 8.917-37.845 32.512-64.725 62.549-73.088 5.76-57.387 37.803-105.472 77.611-141.611l-231.296-65.365c-74.496-27.947-124.587-100.224-124.587-179.797v-106.667c0-11.776 9.557-21.333 21.333-21.333h981.333c11.776 0 21.333 9.557 21.333 21.333v106.667c0 79.573-50.048 151.851-126.208 180.309zM853.333 576c0-23.509-19.157-42.667-42.667-42.667h-21.333v85.333h21.333c23.552 0 42.667-19.157 42.667-42.667zM981.333-21.333h-938.667v85.333c0 61.909 38.955 118.101 95.189 139.264l260.352 73.515c42.069-27.136 85.717-42.112 113.792-42.112 32.085 0 77.269 16.896 115.584 41.984l256.853-72.875c57.984-21.675 96.896-77.867 96.896-139.776v-85.333zM384.128 555.819c10.837 0 19.925 9.131 21.248 19.797 4.011 0.512 10.624 0.427 15.445 0.384h11.691c4.821 0.043 11.435 0.128 15.488-0.384 0.213-11.605 9.685-20.949 21.333-20.949 11.776 0 21.333 9.557 21.333 21.333 0 12.715-3.797 22.955-11.349 30.421-12.629 12.544-30.165 12.373-47.104 12.245h-11.051c-16.64 0.128-34.517 0.299-47.147-12.245-7.509-7.467-11.349-17.707-11.349-30.421 0-11.776 9.685-20.181 21.461-20.181zM597.333 618.667h-5.504c-16.683 0.128-34.475 0.299-47.147-12.245-7.509-7.467-11.349-17.707-11.349-30.421 0-11.776 9.643-20.181 21.419-20.181 10.837 0 19.925 9.131 21.248 19.797 4.053 0.512 10.667 0.427 15.445 0.384h11.733c4.821 0.043 11.477 0.128 15.488-0.384 0.213-11.605 9.685-20.949 21.333-20.949 11.776 0 21.333 9.557 21.333 21.333 0 12.715-3.797 22.955-11.349 30.421-12.629 12.544-30.208 12.373-47.104 12.245h-5.547z" />
<glyph unicode="&#xe943;" glyph-name="logo-paypal" d="M516.736 668.288h-68.096l-24.704-105.771h43.904c12.629 0 26.667 4.437 39.509 12.501 4.779 3.072 9.643 6.656 14.037 10.752 12.032 11.349 20.565 25.429 24.021 39.637 4.736 16.939 1.579 29.867-8.192 36.864-5.547 3.968-12.587 6.016-20.48 6.016zM829.739 696.789c2.688-26.411 1.664-56.32-5.888-90.581-34.901-158.421-169.259-264.875-334.336-264.875h-115.371l-55.68-223.317c-4.736-18.944-21.803-32.299-41.387-32.299h-59.435l-20.053-85.717h208.171l63.744 255.616h148.693c144.085 0 261.419 89.557 292.651 231.424 23.296 105.515-19.285 174.464-81.109 209.749zM593.195 853.333h-354.731l-169.557-724.949h208.171l63.744 255.616h148.693c144.085 0 261.419 89.557 292.651 231.424 35.627 161.536-82.731 237.909-188.971 237.909zM586.795 615.424c-5.589-23.168-18.773-44.288-36.309-60.757-6.315-5.931-13.269-11.136-20.48-15.787-18.901-11.904-40.533-19.072-62.208-19.072h-97.664l41.387 177.152 3.243 13.995h101.973c17.579 0 33.067-5.205 45.312-13.995 23.168-16.64 34.475-46.848 24.747-81.536z" />
<glyph unicode="&#xe944;" glyph-name="credit-card" d="M917.333 746.667h-810.667c-58.837 0-106.667-47.872-106.667-106.667v-64h1024v64c0 58.795-47.872 106.667-106.667 106.667zM0 213.333c0-58.795 47.829-106.667 106.667-106.667h810.667c58.795 0 106.667 47.872 106.667 106.667v320h-1024v-320zM746.667 448h128c11.733 0 21.333-9.557 21.333-21.333s-9.6-21.333-21.333-21.333h-128c-11.776 0-21.333 9.557-21.333 21.333s9.557 21.333 21.333 21.333zM149.333 448h341.333c11.733 0 21.333-9.557 21.333-21.333s-9.6-21.333-21.333-21.333h-341.333c-11.776 0-21.333 9.557-21.333 21.333s9.557 21.333 21.333 21.333zM149.333 362.667h128c11.733 0 21.333-9.557 21.333-21.333s-9.6-21.333-21.333-21.333h-128c-11.776 0-21.333 9.557-21.333 21.333s9.557 21.333 21.333 21.333z" />
<glyph unicode="&#xe945;" glyph-name="remove-circle-1" d="M512 960c-282.312 0-512-229.688-512-512s229.688-512 512-512c282.312 0 512 229.688 512 512s-229.688 512-512 512v0zM512-19.478c-257.781 0-467.478 209.697-467.478 467.478s209.697 467.478 467.478 467.478c257.781 0 467.478-209.697 467.478-467.478s-209.697-467.478-467.478-467.478v0zM700.244 669.044c-8.682 8.682-22.795 8.682-31.477 0l-173.145-173.145-173.19 173.145c-8.682 8.682-22.795 8.682-31.477 0s-8.682-22.795 0-31.477l173.145-173.145-173.145-173.145c-8.682-8.682-8.682-22.795 0-31.477 4.363-4.363 10.062-6.5 15.761-6.5s11.398 2.182 15.761 6.5l173.19 173.145 173.145-173.145c4.363-4.363 10.062-6.5 15.761-6.5s11.398 2.182 15.761 6.5c8.682 8.682 8.682 22.795 0 31.477l-173.234 173.145 173.145 173.145c8.682 8.682 8.682 22.751 0 31.477v0z" />
<glyph unicode="&#xe946;" glyph-name="download-2" d="M960 225.365c-11.776 0-21.333-9.557-21.333-21.333v-81.621c0-55.723-45.312-101.077-101.077-101.077h-693.845c-55.723 0-101.077 45.355-101.077 101.077v81.621c0 11.776-9.557 21.333-21.333 21.333s-21.333-9.515-21.333-21.333v-81.621c0-79.275 64.512-143.744 143.744-143.744h693.845c79.232 0 143.744 64.469 143.744 143.744v81.621c0 11.819-9.557 21.333-21.333 21.333zM475.563 193.664c2.005-1.963 4.395-3.541 6.997-4.608s5.333-1.664 8.107-1.664 5.547 0.555 8.149 1.664c2.603 1.067 4.949 2.645 6.955 4.608l298.624 298.667c8.32 8.32 8.32 21.845 0 30.165s-21.845 8.32-30.165 0l-262.229-262.272v678.443c0 11.776-9.557 21.333-21.333 21.333s-21.333-9.557-21.333-21.333v-678.443l-262.229 262.229c-8.32 8.32-21.845 8.32-30.165 0s-8.32-21.845 0-30.165l298.624-298.624z" />
<glyph unicode="&#xe947;" glyph-name="check-2" d="M1017.771 655.104l-149.333 149.333c-8.32 8.32-21.845 8.32-30.165 0l-518.272-518.272-134.229 134.229c-8.32 8.32-21.845 8.32-30.165 0l-149.333-149.333c-8.32-8.32-8.32-21.845 0-30.165l298.667-298.667c4.139-4.139 9.6-6.229 15.061-6.229s10.923 2.091 15.104 6.229l682.667 682.667c8.32 8.32 8.32 21.845 0 30.208z" />
<glyph unicode="&#xe948;" glyph-name="remove-circle-12" d="M511.957 942.644c-272.226 0-494.085-221.428-494.601-493.698-0.258-132.134 50.927-256.441 144.178-350.079 93.251-93.552 217.342-145.253 349.52-145.511h0.946c272.183 0 494.085 221.472 494.644 493.741 0.516 272.699-220.955 495.031-494.687 495.547v0zM709.341 280.337c8.344-8.387 8.301-22.022-0.086-30.41-4.215-4.215-9.678-6.28-15.183-6.28s-11.054 2.108-15.226 6.28l-166.975 167.62-167.577-166.975c-4.215-4.215-9.721-6.28-15.226-6.28s-11.011 2.108-15.226 6.28c-8.387 8.43-8.387 22.065 0.043 30.41l167.577 166.975-166.889 167.663c-8.387 8.473-8.344 22.065 0.086 30.41 8.387 8.473 22.022 8.43 30.41 0l166.932-167.577 167.577 166.932c8.387 8.387 22.065 8.387 30.41-0.043 8.387-8.387 8.387-22.022-0.043-30.41l-167.577-166.975 166.975-167.62z" />
<glyph unicode="&#xe949;" glyph-name="calendar-12" d="M1002.667 874.667h-149.333v64c0 11.776-9.557 21.333-21.333 21.333h-128c-11.776 0-21.333-9.557-21.333-21.333v-64h-341.333v64c0 11.776-9.557 21.333-21.333 21.333h-128c-11.776 0-21.333-9.557-21.333-21.333v-64h-149.333c-11.776 0-21.333-9.557-21.333-21.333v-896c0-11.776 9.557-21.333 21.333-21.333h981.333c11.776 0 21.333 9.557 21.333 21.333v896c0 11.776-9.557 21.333-21.333 21.333zM725.333 917.333h85.333v-128h-85.333v128zM213.333 917.333h85.333v-128h-85.333v128zM170.667 832v-64c0-11.776 9.557-21.333 21.333-21.333h128c11.776 0 21.333 9.557 21.333 21.333v64h341.333v-64c0-11.776 9.557-21.333 21.333-21.333h128c11.776 0 21.333 9.557 21.333 21.333v64h128v-170.667h-938.667v170.667h128zM42.667-21.333v640h938.667v-640h-938.667zM490.667 149.333h-64v320c0 8.619-5.205 16.427-13.184 19.712-7.979 3.328-17.152 1.493-23.253-4.608l-85.333-85.333c-8.32-8.32-8.32-21.845 0-30.165s21.845-8.32 30.165 0l48.939 48.896v-268.501h-64c-11.776 0-21.333-9.557-21.333-21.333s9.557-21.333 21.333-21.333h170.667c11.776 0 21.333 9.557 21.333 21.333s-9.557 21.333-21.333 21.333zM725.333 490.667h-213.333c-11.776 0-21.333-9.557-21.333-21.333v-42.667c0-11.776 9.557-21.333 21.333-21.333s21.333 9.557 21.333 21.333v21.333h161.195l-48-128h-70.528c-11.776 0-21.333-9.557-21.333-21.333s9.557-21.333 21.333-21.333h54.528l-53.205-141.824c-4.139-11.051 1.451-23.339 12.459-27.52 2.517-0.896 5.035-1.323 7.552-1.323 8.619 0 16.768 5.291 19.968 13.824l58.837 156.843h27.861c11.776 0 21.333 9.557 21.333 21.333s-9.557 21.333-21.333 21.333h-11.861l53.205 141.824c2.475 6.571 1.536 13.909-2.432 19.669-4.053 5.675-10.581 9.173-17.579 9.173z" />
<glyph unicode="&#xe94a;" glyph-name="email-2" d="M938.667 789.333h-853.333c-47.061 0-85.333-38.229-85.333-85.333v-512c0-47.061 38.272-85.333 85.333-85.333h853.333c47.061 0 85.333 38.272 85.333 85.333v512c0 47.104-38.272 85.333-85.333 85.333zM981.333 192c0-23.509-19.157-42.667-42.667-42.667h-853.333c-23.509 0-42.667 19.157-42.667 42.667v512c0 23.509 19.157 42.667 42.667 42.667h853.333c23.509 0 42.667-19.157 42.667-42.667v-512zM892.587 608.896c-6.4 9.856-19.584 12.715-29.483 6.315l-351.104-227.115-351.104 227.157c-9.856 6.357-23.083 3.541-29.483-6.357-6.4-9.856-3.541-23.083 6.357-29.483l362.667-234.667c3.541-2.304 7.552-3.413 11.563-3.413s8.064 1.109 11.563 3.413l362.667 234.667c9.899 6.4 12.757 19.627 6.357 29.483zM288.085 381.184l-149.333-85.333c-10.24-5.803-13.781-18.859-7.936-29.099 3.925-6.912 11.136-10.752 18.517-10.752 3.584 0 7.211 0.896 10.581 2.816l149.333 85.333c10.24 5.803 13.781 18.859 7.936 29.099-5.888 10.283-18.859 13.824-29.099 7.936zM885.248 295.851l-149.333 85.333c-10.283 5.931-23.296 2.347-29.099-7.936-5.845-10.24-2.304-23.296 7.936-29.099l149.333-85.333c3.328-1.92 6.997-2.816 10.581-2.816 7.424 0 14.592 3.84 18.56 10.752 5.803 10.197 2.261 23.296-7.979 29.099z" />
<glyph unicode="&#xe94b;" glyph-name="inbox-text" d="M362.667 746.667h42.667c11.776 0 21.333 9.557 21.333 21.333s-9.557 21.333-21.333 21.333h-42.667c-11.776 0-21.333-9.557-21.333-21.333s9.557-21.333 21.333-21.333zM448 661.333h213.333c11.776 0 21.333 9.557 21.333 21.333s-9.557 21.333-21.333 21.333h-213.333c-11.776 0-21.333-9.557-21.333-21.333s9.557-21.333 21.333-21.333zM362.667 576h298.667c11.776 0 21.333 9.557 21.333 21.333s-9.557 21.333-21.333 21.333h-298.667c-11.776 0-21.333-9.557-21.333-21.333s9.557-21.333 21.333-21.333zM362.667 490.667h298.667c11.776 0 21.333 9.557 21.333 21.333s-9.557 21.333-21.333 21.333h-298.667c-11.776 0-21.333-9.557-21.333-21.333s9.557-21.333 21.333-21.333zM362.667 405.333h298.667c11.776 0 21.333 9.557 21.333 21.333s-9.557 21.333-21.333 21.333h-298.667c-11.776 0-21.333-9.557-21.333-21.333s9.557-21.333 21.333-21.333zM1023.744 257.323c-0.085 1.451-0.469 2.731-0.853 4.139s-0.725 2.731-1.365 4.053c-0.213 0.384-0.213 0.853-0.427 1.237l-149.333 256c-3.84 6.528-10.837 10.581-18.432 10.581h-42.667v362.667c0 11.776-9.557 21.333-21.333 21.333h-554.667c-11.776 0-21.333-9.557-21.333-21.333v-362.667h-42.667c-7.595 0-14.592-4.053-18.432-10.581l-149.333-256c-0.213-0.427-0.213-0.853-0.427-1.237-0.64-1.28-0.981-2.645-1.365-4.053s-0.768-2.688-0.853-4.139c0-0.469-0.256-0.853-0.256-1.323v-298.667c0-11.776 9.557-21.333 21.333-21.333h981.333c11.776 0 21.333 9.557 21.333 21.333v298.667c0 0.469-0.256 0.853-0.256 1.323zM182.912 490.667h30.421v-149.333c0-11.776 9.557-21.333 21.333-21.333s21.333 9.557 21.333 21.333v533.333h512v-533.333c0-11.776 9.557-21.333 21.333-21.333s21.333 9.557 21.333 21.333v149.333h30.421l124.459-213.333h-261.547c-11.776 0-21.333-9.557-21.333-21.333v-42.667c0-35.285-28.715-64-64-64h-192c-35.285 0-64 28.715-64 64v42.667c0 11.776-9.557 21.333-21.333 21.333h-282.837l124.416 213.333zM981.333-21.333h-938.667v256h277.333v-21.333c0-58.795 47.872-106.667 106.667-106.667h192c58.795 0 106.667 47.872 106.667 106.667v21.333h256v-256z" />
<glyph unicode="&#xe94c;" glyph-name="question-circled" d="M512-20.61c255.995 0 464.271 210.223 464.271 468.61 0 125.262-48.284 242.985-135.931 331.409-87.606 88.465-204.239 137.201-328.341 137.201-255.995 0-464.271-210.223-464.271-468.61 0-125.262 48.284-242.985 135.931-331.409 87.606-88.465 204.239-137.201 328.341-137.201v0zM512 875.861c113.323 0 219.782-44.498 299.798-125.262s124.102-188.218 124.102-302.6c0-235.935-190.149-427.861-423.9-427.861-113.323 0-219.782 44.498-299.798 125.262s-124.102 188.218-124.102 302.6c0 235.935 190.149 427.861 423.9 427.861v0zM389.473 561.241c10.739-0.244 20.751 7.702 21.558 18.907 3.755 54.481 52.2 96.208 107.671 91.685 27.049-1.874 51.716-13.977 69.479-34.066 17.642-19.926 26.322-45.394 24.465-71.718-2.301-33.169-17.683-45.598-40.937-64.342-39.281-31.702-88.171-71.188-82.64-217.476 0.404-11.002 9.366-19.6 20.145-19.6h0.807c11.143 0 19.822 9.902 19.378 21.149-4.723 125.791 31.974 155.456 67.541 184.103 25.797 20.823 52.442 42.338 55.995 93.355 2.584 37.367-9.689 73.47-34.639 101.709-24.788 28.076-59.184 44.987-96.811 47.594-77.675 5.42-145.418-52.688-150.747-129.581-0.767-11.206 7.59-20.945 18.732-21.719v0zM497.87 217.77c-4.037-3.667-6.056-8.965-6.056-14.262s2.019-10.595 6.056-14.67c4.037-3.667 8.882-5.705 14.13-5.705s10.497 2.037 14.534 6.112c3.633 3.667 5.652 8.965 5.652 14.262s-2.019 10.595-6.056 14.262c-7.267 7.742-20.589 7.742-28.26 0v0z" />
<glyph unicode="&#xe94d;" glyph-name="calendar-13" d="M952.764 845.738h-134.146v59.661c0 10.978-8.585 19.887-19.164 19.887h-114.982c-10.578 0-19.164-8.909-19.164-19.887v-59.661h-306.619v59.661c0 10.978-8.585 19.887-19.164 19.887h-114.982c-10.578 0-19.164-8.909-19.164-19.887v-59.661h-134.146c-10.578 0-19.164-8.909-19.164-19.887v-835.249c0-10.978 8.585-19.887 19.164-19.887h881.528c10.578 0 19.164 8.909 19.164 19.887v835.249c0 10.978-8.585 19.887-19.164 19.887v0zM703.637 885.511h76.655v-119.321h-76.655v119.321zM243.709 885.511h76.655v-119.321h-76.655v119.321zM205.381 805.964v-59.661c0-10.978 8.585-19.887 19.164-19.887h114.982c10.578 0 19.164 8.909 19.164 19.887v59.661h306.619v-59.661c0-10.978 8.585-19.887 19.164-19.887h114.982c10.578 0 19.164 8.909 19.164 19.887v59.661h114.982v-159.095h-843.201v159.095h114.982zM90.4 10.489v596.606h843.201v-596.606h-843.201z" />
<glyph unicode="&#xe94e;" glyph-name="call-logo" horiz-adv-x="873" d="M124.327 176.667c-21.503 29.679-39.277 61.765-53.015 96.108-22.678 56.006-34.36 114.745-34.36 174.849s11.682 119.526 34.36 174.849c23.365 56.689 57.725 107.915 101.706 152.31l1.374 1.366c43.981 43.712 95.521 77.862 153.247 101.085 56.351 22.539 115.45 34.15 175.924 34.15s119.573-11.611 175.924-34.15c57.725-23.222 109.953-57.372 154.621-101.768l1.374-1.366c4.123-4.098 4.123-11.611 0-15.709l-40.545-40.297c-2.062-2.049-5.498-3.415-8.246-3.415-3.436 0-6.185 1.366-8.246 3.415l-1.374 1.366c-150.498 150.261-395.829 150.261-547.014 1.366 0-0.683-0.687-0.683-0.687-0.683-0.687 0-0.687-0.683-0.687-0.683-149.81-150.261-149.123-394.093 1.374-543.671l1.374-0.683c1.374-1.366 2.062-2.732 2.749-4.781 151.185-145.48 393.768-143.431 542.891 4.781l1.374 1.366c2.062 2.049 5.498 3.415 8.246 3.415 3.436 0 6.185-1.366 8.246-3.415l39.858-42.346c4.123-4.098 4.123-10.928 0-15.709l-1.374-1.366c-44.668-43.712-96.896-78.545-154.621-101.768-56.351-22.539-115.45-34.15-175.924-34.15s-120.261 11.611-175.924 34.15c-12.829 5.223-25.38 10.999-37.637 17.312l-168.263-3.684 3.275 147.756zM676.352 618.107v0c1.944-1.932 5.345-3.381 8.261-3.381s5.831 0.966 8.261 3.381l40.332 40.085c4.373 4.347 4.859 11.591 0 16.421l-0.972 0.966c-61.227 60.853-142.862 94.659-229.357 94.659s-167.645-33.324-228.386-93.693l-0.972-0.966c-60.255-60.853-93.784-141.506-94.27-226.99 0-85 32.557-164.688 92.326-225.058 0.972-1.932 1.458-3.381 2.915-4.83 61.227-59.887 142.377-93.211 228.871-93.211s168.131 33.807 229.357 94.659l0.972 0.966c4.373 4.347 4.373 11.108 0 16.421l-40.332 40.085c-1.944 1.932-5.345 3.381-8.261 3.381s-5.831-0.966-8.261-3.381v0l-0.972-0.966c-93.784-93.211-245.879-94.659-341.606-5.313-0.486 1.449-1.458 3.381-2.915 4.83v0l-0.972 0.966c-94.756 94.177-95.242 248.24-0.972 343.865l0.972 0.966c95.242 93.694 250.738 93.694 345.98-0.966v-2.898z" />
<glyph unicode="&#xe94f;" glyph-name="opposed-arrows" horiz-adv-x="1446" d="M611.147 589.794l-490.677-490.737v288.708c0 16.625-13.493 30.118-30.118 30.118s-30.118-13.493-30.118-30.118v-361.412c0-3.915 0.843-7.831 2.289-11.505 3.072-7.409 8.915-13.252 16.324-16.324 3.674-1.506 7.59-2.289 11.505-2.289h361.412c16.625 0 30.118 13.493 30.118 30.118s-13.493 30.118-30.118 30.118h-288.708l490.677 490.677c11.746 11.746 11.746 30.84 0 42.586s-30.78 11.806-42.586 0.060v0zM1383.123 881.092c-3.072 7.409-8.915 13.252-16.324 16.324-3.674 1.566-7.59 2.349-11.505 2.349h-361.412c-16.625 0-30.118-13.493-30.118-30.118s13.493-30.118 30.118-30.118h288.708l-520.794-520.794c-11.746-11.746-11.746-30.84 0-42.586 5.843-5.903 13.553-8.855 21.263-8.855s15.42 2.952 21.323 8.794l520.794 520.855v-288.708c0-16.625 13.493-30.118 30.118-30.118s30.118 13.493 30.118 30.118v361.412c0 3.855-0.843 7.831-2.289 11.445v0z" />
<glyph unicode="&#xe950;" glyph-name="check-circle-22" d="M710.784 612.907l-304.896-284.587-92.117 92.075c-8.32 8.32-21.845 8.32-30.165 0s-8.32-21.845 0-30.165l106.667-106.667c4.139-4.139 9.6-6.229 15.061-6.229 5.248 0 10.453 1.877 14.549 5.717l320 298.667c8.619 8.021 9.045 21.547 1.024 30.165s-21.461 9.088-30.123 1.024zM512 960c-282.325 0-512-229.675-512-512s229.675-512 512-512 512 229.675 512 512-229.675 512-512 512zM512-21.333c-258.773 0-469.333 210.517-469.333 469.333 0 258.773 210.56 469.333 469.333 469.333s469.333-210.56 469.333-469.333c0-258.816-210.56-469.333-469.333-469.333z" />
<glyph unicode="&#xe951;" glyph-name="paperclip-1" d="M939.605 830.336c-48.341 48.384-112.64 75.008-180.992 75.008-68.395 0-132.693-26.624-181.035-75.008l-512-511.957c-74.795-74.88-74.795-196.693 0-271.573 37.419-37.419 86.613-56.107 135.765-56.107s98.347 18.731 135.808 56.107l489.899 491.52c41.557 41.643 41.557 109.269 0 150.784-40.277 40.32-110.592 40.32-150.827 0l-362.709-362.667c-8.32-8.32-8.32-21.803 0-30.165s21.845-8.32 30.165 0l362.709 362.667c24.149 24.192 66.347 24.149 90.496 0 24.917-24.917 24.917-65.536 0-90.496l-489.941-491.435c-58.197-58.24-152.96-58.24-211.2 0-58.155 58.24-58.155 152.96 0 211.2l512 512c40.32 40.32 93.909 62.507 150.869 62.507s110.549-22.187 150.827-62.507c40.32-40.277 62.507-93.867 62.507-150.827s-22.187-110.507-62.507-150.784l-362.667-362.667c-8.32-8.363-8.32-21.845 0-30.165s21.845-8.32 30.165 0l362.667 362.667c48.341 48.299 75.008 112.597 75.008 180.949 0 68.309-26.624 132.651-75.008 180.949z" />
<glyph unicode="&#xe952;" glyph-name="microphone-off" d="M277.333 554.667c-11.776 0-21.333-9.557-21.333-21.333v-106.667c0-152.917 124.416-277.333 277.333-277.333 30.251 0 60.032 4.821 88.448 14.421 11.179 3.755 17.195 15.829 13.44 27.008s-15.829 17.28-27.008 13.397c-24.064-8.064-49.237-12.16-74.88-12.16-129.408 0-234.667 105.301-234.667 234.667v106.667c0 11.776-9.557 21.333-21.333 21.333zM291.627 769.963c10.624-4.907 23.339-0.171 28.288 10.453 38.187 83.157 121.941 136.917 213.419 136.917 129.408 0 234.667-105.301 234.667-234.667v-256c0-34.133-7.168-66.987-21.291-97.749-4.949-10.709-0.213-23.381 10.453-28.288 2.901-1.323 5.931-1.963 8.875-1.963 8.064 0 15.829 4.608 19.413 12.416 16.725 36.395 25.216 75.307 25.216 115.584v256c0 152.917-124.416 277.333-277.333 277.333-108.075 0-207.061-63.488-252.203-161.749-4.907-10.709-0.213-23.381 10.496-28.288zM819.755 237.781c3.328-1.92 6.955-2.773 10.496-2.773 7.424 0 14.635 3.883 18.603 10.795 30.848 54.4 47.147 116.907 47.147 180.864v85.333c0 11.776-9.557 21.333-21.333 21.333s-21.333-9.557-21.333-21.333v-85.333c0-56.576-14.379-111.829-41.6-159.787-5.803-10.24-2.219-23.296 8.021-29.099zM692.523 147.925c-47.829-27.008-102.869-41.259-159.189-41.259-179.456 0-320 140.544-320 320v85.333c0 11.776-9.557 21.333-21.333 21.333s-21.333-9.557-21.333-21.333v-85.333c0-196.181 148.352-350.891 341.333-361.643v-129.024h42.667v129.323c56.149 3.2 110.72 18.261 158.805 45.397 10.283 5.803 13.909 18.773 8.107 29.099-5.803 10.24-18.773 13.909-29.056 8.107zM996.437-6.229l-938.667 938.667c-8.32 8.32-21.845 8.32-30.165 0s-8.32-21.845 0-30.165l938.667-938.667c4.139-4.181 9.6-6.272 15.061-6.272s10.923 2.091 15.104 6.229c8.32 8.363 8.32 21.845 0 30.208z" />
<glyph unicode="&#xe953;" glyph-name="microphone-3" d="M874.667 533.333c-11.776 0-21.333-9.557-21.333-21.333v-64h-42.667v234.667c0 119.552-76.16 221.355-182.4 260.267-1.109 0.597-2.304 0.896-3.541 1.28-28.672 10.027-59.349 15.787-91.392 15.787-32.085 0-62.763-5.76-91.477-15.829-1.152-0.341-2.304-0.683-3.371-1.195-106.24-38.912-182.485-140.715-182.485-260.309v-234.667h-42.667v64c0 11.776-9.557 21.333-21.333 21.333s-21.333-9.557-21.333-21.333v-85.333c0-196.181 148.352-350.891 341.333-361.643v-107.691c0-11.776 9.557-21.333 21.333-21.333s21.333 9.557 21.333 21.333v107.691c192.981 10.752 341.333 165.461 341.333 361.643v85.333c0 11.776-9.557 21.333-21.333 21.333zM298.667 490.667h149.333c11.776 0 21.333 9.557 21.333 21.333s-9.557 21.333-21.333 21.333h-149.333v42.667h149.333c11.776 0 21.333 9.557 21.333 21.333s-9.557 21.333-21.333 21.333h-149.333v42.667h149.333c11.776 0 21.333 9.557 21.333 21.333s-9.557 21.333-21.333 21.333h-148.267c7.424 81.835 57.088 151.595 126.933 187.435v-80.768c0-11.776 9.557-21.333 21.333-21.333s21.333 9.557 21.333 21.333v97.536c13.781 3.968 27.989 6.699 42.667 8.021v-105.557c0-11.776 9.557-21.333 21.333-21.333s21.333 9.557 21.333 21.333v105.6c14.677-1.323 28.928-4.096 42.709-8.021l-0.043-97.579c0-11.776 9.557-21.333 21.333-21.333s21.333 9.557 21.333 21.333l0.043 80.768c69.845-35.883 119.467-105.6 126.891-187.435h-148.267c-11.776 0-21.333-9.557-21.333-21.333s9.557-21.333 21.333-21.333h149.333v-42.667h-149.333c-11.776 0-21.333-9.557-21.333-21.333s9.557-21.333 21.333-21.333h149.333v-42.667h-149.333c-11.776 0-21.333-9.557-21.333-21.333s9.557-21.333 21.333-21.333h149.333v-42.667h-469.333v42.667zM766.933 405.333c-10.837-119.424-111.403-213.333-233.6-213.333s-222.763 93.909-233.6 213.333h467.2zM533.333 106.667c-172.245 0-308.267 129.579-318.976 298.667h42.709c10.965-142.976 130.56-256 276.267-256s265.301 113.024 276.267 256h42.709c-10.709-169.088-146.731-298.667-318.976-298.667z" />
<glyph unicode="&#xe954;" glyph-name="smiley-smile-4" d="M512 960c-282.325 0-512-229.675-512-512s229.675-512 512-512 512 229.675 512 512-229.675 512-512 512zM512-21.333c-258.773 0-469.333 210.56-469.333 469.333s210.56 469.333 469.333 469.333 469.333-210.56 469.333-469.333-210.56-469.333-469.333-469.333zM832 426.667c-11.776 0-21.333-9.557-21.333-21.333 0-164.651-133.973-298.667-298.667-298.667s-298.667 134.016-298.667 298.667c0 11.776-9.557 21.333-21.333 21.333s-21.333-9.557-21.333-21.333c0-188.203 153.131-341.333 341.333-341.333s341.333 153.131 341.333 341.333c0 11.776-9.557 21.333-21.333 21.333zM234.667 512c11.776 0 21.333 9.557 21.333 21.333 0 35.285 28.715 64 64 64s64-28.715 64-64c0-11.776 9.557-21.333 21.333-21.333s21.333 9.557 21.333 21.333c0 58.837-47.872 106.667-106.667 106.667s-106.667-47.829-106.667-106.667c0-11.776 9.557-21.333 21.333-21.333zM618.667 512c11.776 0 21.333 9.557 21.333 21.333 0 35.285 28.715 64 64 64s64-28.715 64-64c0-11.776 9.557-21.333 21.333-21.333s21.333 9.557 21.333 21.333c0 58.837-47.872 106.667-106.667 106.667s-106.667-47.829-106.667-106.667c0-11.776 9.557-21.333 21.333-21.333z" />
<glyph unicode="&#xe955;" glyph-name="file-csv" d="M847.104 697.771l-256 256c-4.011 3.968-9.429 6.229-15.104 6.229h-554.667c-11.733 0-21.333-9.557-21.333-21.333v-981.333c0-11.776 9.6-21.333 21.333-21.333h810.667c11.733 0 21.333 9.557 21.333 21.333v725.333c0 5.675-2.261 11.093-6.229 15.104zM240.469 188.416c12.928 0 27.349 2.773 34.475 36.096 2.517 11.563 14.123 18.901 25.344 16.427 11.563-2.517 18.859-13.824 16.427-25.387-12.416-57.728-48.299-69.803-76.203-69.803-81.493 0-81.493 94.165-81.493 134.4 0 40.192 0 134.4 81.493 134.4 27.904 0 63.787-12.075 76.203-69.803 2.475-11.563-4.864-22.912-16.427-25.387-11.221-2.517-22.827 4.864-25.344 16.384-7.125 33.323-21.547 36.139-34.475 36.139-19.669 0-38.827-7.083-38.827-91.733s19.157-91.733 38.827-91.733zM441.259 145.792c-39.211 0-71.765 32.085-74.112 73.045-0.683 11.733 8.277 21.845 20.053 22.485 13.312 0.427 21.888-8.32 22.528-20.053 1.067-18.432 14.933-32.853 31.531-32.853 17.451 0 31.659 15.744 31.659 35.157 0 21.803-13.739 29.824-34.432 35.2l-5.12 1.408c-54.784 14.293-66.304 49.451-66.304 76.459 0 42.965 33.28 77.867 74.24 77.867 39.211 0 71.808-32.085 74.197-73.003 0.725-11.733-8.235-21.888-20.053-22.528-11.733-0.64-21.845 8.235-22.528 20.053-1.067 18.432-15.019 32.853-31.616 32.853-17.408 0-31.573-15.787-31.573-35.2 0-21.76 13.739-29.824 34.432-35.2l-0.299-22.016 5.376 20.608c54.827-14.293 66.347-49.493 66.347-76.501 0-42.88-33.323-77.781-74.325-77.781zM706.944 387.456l-62.549-221.312c-2.645-9.173-11.008-15.531-20.523-15.531s-17.92 6.357-20.523 15.531l-62.549 221.312c-3.2 11.349 3.413 23.125 14.763 26.283 11.392 3.328 23.125-3.371 26.325-14.677l41.984-148.651 41.984 148.651c3.2 11.349 15.061 17.963 26.325 14.677 11.349-3.157 18.005-14.933 14.763-26.283zM576 682.667v256l256-256h-256z" />
<glyph unicode="&#xe956;" glyph-name="circle-plus" horiz-adv-x="724" d="M381.834 528.941v-109.48h112.050v-33.414h-112.050v-109.48h-33.796v109.48h-112.050v33.414h112.050v109.48h33.796zM364.477 753.361c0 0-0.001 0-0.001 0-188.858 0-341.957-154.344-341.957-344.737 0 0 0-0.001 0-0.001 0.001-190.392 153.1-344.736 341.957-344.736 0 0 0.001 0 0.001 0 188.857 0.001 341.955 154.344 341.956 344.737 0 0 0 0 0 0 0 190.393-153.099 344.737-341.957 344.737zM365.537 742.671c183.001 0 331.353-149.558 331.354-334.047s-148.352-334.048-331.353-334.048c-183.002 0-331.354 149.558-331.354 334.047s148.352 334.048 331.353 334.048z" />
</font>
</defs>
</svg>
